<?xml version="1.0" encoding="UTF-8" standalone="no"?>
<!-- Created with Inkscape (http://www.inkscape.org/) -->

<svg
   width="300mm"
   height="300mm"
   viewBox="0 0 300 300"
   version="1.1"
   id="svg5"
   xml:space="preserve"
   inkscape:version="1.2 (dc2aedaf03, 2022-05-15)"
   sodipodi:docname="prusa Valkyrie texture_v3.svg"
   xmlns:inkscape="http://www.inkscape.org/namespaces/inkscape"
   xmlns:sodipodi="http://sodipodi.sourceforge.net/DTD/sodipodi-0.dtd"
   xmlns="http://www.w3.org/2000/svg"
   xmlns:svg="http://www.w3.org/2000/svg"><sodipodi:namedview
     id="namedview7"
     pagecolor="#ffffff"
     bordercolor="#000000"
     borderopacity="0.25"
     inkscape:showpageshadow="2"
     inkscape:pageopacity="0.0"
     inkscape:pagecheckerboard="0"
     inkscape:deskcolor="#d1d1d1"
     inkscape:document-units="mm"
     showgrid="true"
     inkscape:zoom="0.71"
     inkscape:cx="823.94366"
     inkscape:cy="535.21127"
     inkscape:window-width="1920"
     inkscape:window-height="1051"
     inkscape:window-x="1911"
     inkscape:window-y="-9"
     inkscape:window-maximized="1"
     inkscape:current-layer="layer1"><inkscape:grid
       type="xygrid"
       id="grid284"
       units="mm"
       spacingx="9.9999999"
       spacingy="9.9999999"
       empspacing="20" /></sodipodi:namedview><defs
     id="defs2" /><g
     inkscape:label="Layer 1"
     inkscape:groupmode="layer"
     id="layer1"><g
       transform="matrix(0.0676083,0,0,-0.07385811,-53.840448,234.4589)"
       fill="#000000"
       stroke="none"
       id="g37"><path
         d="m 992,2258 c 12,-15 143,-176 291,-358 411,-503 627,-770 1010,-1246 193,-240 355,-432 361,-427 5,5 -26,58 -69,116 -124,167 -1086,1556 -1096,1583 -7,18 153,24 681,24 379,0 690,5 690,11 0,8 -1265,226 -1830,316 -49,7 -56,4 -38,-19 z"
         id="path29" /><path
         d="m 4075,2124 c -492,-83 -895,-156 -895,-163 0,-6 310,-11 690,-11 379,0 690,-6 690,-12 0,-7 -16,-34 -37,-60 -20,-27 -116,-165 -214,-308 -98,-143 -347,-502 -554,-798 -207,-296 -372,-541 -368,-546 4,-4 115,125 246,288 130,163 318,395 417,517 99,122 209,257 243,300 175,217 373,462 517,637 88,107 181,221 208,253 l 47,59 -47,-3 c -27,-1 -451,-70 -943,-153 z"
         id="path31" /><path
         d="m 5840,2086 c 0,-13 11,-31 25,-40 38,-24 30,-74 -15,-89 -27,-9 -15,-14 39,-15 67,-2 74,2 45,23 -34,26 -36,64 -5,115 16,26 14,26 -17,1 -30,-25 -37,-25 -53,0 -12,19 -18,20 -19,5 z"
         id="path33" /><path
         d="m 1995,1745 c -96,-4 -175,-10 -175,-15 0,-5 79,-121 175,-258 96,-138 364,-525 595,-860 231,-336 425,-610 430,-610 6,0 127,171 270,380 143,209 315,458 382,554 420,601 548,790 542,797 -13,13 -1034,34 -1034,22 0,-6 101,-68 225,-136 124,-69 228,-128 232,-131 13,-11 -12,-52 -178,-288 -90,-126 -222,-318 -294,-425 -155,-230 -140,-225 -235,-80 -42,63 -178,261 -303,439 -125,178 -227,331 -227,340 0,9 104,73 230,142 127,70 230,131 230,135 0,10 -570,5 -865,-6 z"
         id="path35" /></g><g
       id="g3964"
       style="fill:none;stroke-width:4;stroke-dasharray:none"><rect
         style="fill:none;stroke-width:4;stroke-dasharray:none"
         id="rect3961"
         width="25"
         height="50"
         x="224.99998"
         y="250" /></g><rect
       style="fill:none;stroke:#9c9c9c;stroke-width:0.973035;stroke-dasharray:0.973035, 0.973035;stroke-dashoffset:0;stroke-opacity:0.86956519"
       id="rect6063"
       width="19.61504"
       height="19.307524"
       x="140.19247"
       y="140" /><rect
       style="fill:none;stroke:#9c9c9c;stroke-width:0.991773;stroke-dasharray:0.991773, 0.991773;stroke-dashoffset:0;stroke-opacity:0.86956519"
       id="rect6169"
       width="60.008232"
       height="59.008236"
       x="119.9959"
       y="120.49589" /><rect
       style="fill:none;stroke:#9c9c9c;stroke-width:0.94807;stroke-dasharray:0.94807, 0.94807;stroke-dashoffset:0;stroke-opacity:0.86956519"
       id="rect6171"
       width="99.911919"
       height="98.95845"
       x="100.04404"
       y="100.52077" /><rect
       style="fill:none;stroke:#9c9c9c;stroke-width:0.964782;stroke-dasharray:0.964782, 0.964782;stroke-dashoffset:0;stroke-opacity:0.86956519"
       id="rect6277"
       width="140.06802"
       height="139.55162"
       x="79.965988"
       y="80.482391" /><rect
       style="fill:none;stroke:#9c9c9c;stroke-width:0.970535;stroke-dasharray:0.970535, 0.970535;stroke-dashoffset:0;stroke-opacity:0.86956519"
       id="rect6279"
       width="179.47685"
       height="179.48843"
       x="60.011574"
       y="60" /><rect
       style="fill:none;stroke:#9c9c9c;stroke-width:0.975659;stroke-dasharray:0.975659, 0.975659;stroke-dashoffset:0;stroke-opacity:0.86956519"
       id="rect6281"
       width="219.95705"
       height="218.9799"
       x="40.010677"
       y="40.487827" /><rect
       style="fill:none;stroke:#9c9c9c;stroke-width:1.19977;stroke-dasharray:1.19977, 1.19977;stroke-dashoffset:0;stroke-opacity:0.86956519"
       id="rect8091"
       width="259.80023"
       height="259.30023"
       x="20.099886"
       y="20.599886" /><path
       style="fill:none;stroke:#9c9c9c;stroke-width:1;stroke-dasharray:1, 1;stroke-dashoffset:0;stroke-opacity:0.869565"
       d="M 19.999999,150 H 279.99999"
       id="path16242" /><path
       style="fill:none;stroke:#9c9c9c;stroke-width:1;stroke-dasharray:1, 1;stroke-dashoffset:0;stroke-opacity:0.869565"
       d="M 150,19.999999 V 279.99999"
       id="path16244" /></g></svg>
