<?xml version="1.0" encoding="UTF-8"?>
<svg width="70px" height="75px" viewBox="0 0 70 75" version="1.1" xmlns="http://www.w3.org/2000/svg" xmlns:xlink="http://www.w3.org/1999/xlink">
    <!-- Generator: Sketch 42 (36781) - http://www.bohemiancoding.com/sketch -->
    <title>avatar-phone</title>
    <desc>Created with Sketch.</desc>
    <defs>
        <path d="M12.4402197,38.9471946 C5.14232639,35.9325373 0,28.6838305 0,20.2208089 C0,9.0531645 8.954305,0 20,0 C31.045695,0 40,9.0531645 40,20.2208089 C40,28.4457407 35.1429413,35.5237212 28.1705296,38.6827749 C27.2631241,39.1953285 24.3964909,40.8328959 23.4387441,41.5992428 C22.2949038,42.5144936 20.0769788,44.9610086 20.0769788,44.9610086 C20.0769788,44.9610086 17.6481164,42.2608245 16.5327736,41.4168034 C15.6475076,40.7468898 13.3503007,39.4526489 12.4402197,38.9471946 Z" id="path-1"></path>
        <filter x="-50%" y="-50%" width="200%" height="200%" filterUnits="objectBoundingBox" id="filter-2">
            <feOffset dx="0" dy="1" in="SourceAlpha" result="shadowOffsetOuter1"></feOffset>
            <feGaussianBlur stdDeviation="2" in="shadowOffsetOuter1" result="shadowBlurOuter1"></feGaussianBlur>
            <feColorMatrix values="0 0 0 0 0   0 0 0 0 0   0 0 0 0 0  0 0 0 0.268172554 0" type="matrix" in="shadowBlurOuter1" result="shadowMatrixOuter1"></feColorMatrix>
            <feOffset dx="0" dy="9" in="SourceAlpha" result="shadowOffsetOuter2"></feOffset>
            <feGaussianBlur stdDeviation="8" in="shadowOffsetOuter2" result="shadowBlurOuter2"></feGaussianBlur>
            <feColorMatrix values="0 0 0 0 0   0 0 0 0 0   0 0 0 0 0  0 0 0 0.144984149 0" type="matrix" in="shadowBlurOuter2" result="shadowMatrixOuter2"></feColorMatrix>
            <feMerge>
                <feMergeNode in="shadowMatrixOuter1"></feMergeNode>
                <feMergeNode in="shadowMatrixOuter2"></feMergeNode>
            </feMerge>
        </filter>
    </defs>
    <g id="Mobile" stroke="none" stroke-width="1" fill="none" fill-rule="evenodd">
        <g id="avatar-phone">
            <g id="avatar" transform="translate(15.000000, 15.000000)">
                <g id="avatar-pin-big">
                    <g id="avatar-pin">
                        <g>
                            <use fill="black" fill-opacity="1" filter="url(#filter-2)" xlink:href="#path-1"></use>
                            <use fill="#FFFFFF" fill-rule="evenodd" xlink:href="#path-1"></use>
                        </g>
                    </g>
                </g>
                <circle id="Oval" fill="#0B57D0" cx="20" cy="20.25" r="18"></circle>
                <g id="Page-1" transform="translate(12.000000, 12.250000)">
                    <polygon id="Stroke-1" stroke-opacity="0.00784313771" stroke="#000000" stroke-width="1.33333335e-11" points="0 0 15.999999 0 15.999999 15.999999 0 15.999999"></polygon>
                    <path d="M11.3333327,0.673333286 L4.66666639,0.666666627 C3.93333316,0.666666627 3.33333313,1.26666665 3.33333313,1.99999988 L3.33333313,13.9999992 C3.33333313,14.7333326 3.93333316,15.3333324 4.66666639,15.3333324 L11.3333327,15.3333324 C12.0666661,15.3333324 12.6666659,14.7333326 12.6666659,13.9999992 L12.6666659,1.99999988 C12.6666659,1.26666657 12.0666661,0.673333286 11.3333327,0.673333286 Z M11.3333327,12.6666659 L4.66666639,12.6666659 L4.66666639,3.33333313 L11.3333327,3.33333313 L11.3333327,12.6666659 Z" id="Fill-2" fill="#FFFFFF"></path>
                </g>
            </g>
        </g>
    </g>
</svg>