<?xml version="1.0" encoding="UTF-8" standalone="no"?>
<!-- Created with Inkscape (http://www.inkscape.org/) -->

<svg
   xmlns:dc="http://purl.org/dc/elements/1.1/"
   xmlns:cc="http://creativecommons.org/ns#"
   xmlns:rdf="http://www.w3.org/1999/02/22-rdf-syntax-ns#"
   xmlns:svg="http://www.w3.org/2000/svg"
   xmlns="http://www.w3.org/2000/svg"
   xmlns:sodipodi="http://sodipodi.sourceforge.net/DTD/sodipodi-0.dtd"
   xmlns:inkscape="http://www.inkscape.org/namespaces/inkscape"
   version="1.1"
   id="svg827"
   width="1920"
   height="1080"
   viewBox="0 0 1920 1080"
   sodipodi:docname="Logo 06.svg"
   inkscape:version="0.92.3 (2405546, 2018-03-11)"
   inkscape:export-filename="D:\OneDrive\Document Library\GitHub\Project-Valkyrie\Image Library\Logo\Valkyrie Logo 19.png"
   inkscape:export-xdpi="96"
   inkscape:export-ydpi="96">
  <metadata
     id="metadata833">
    <rdf:RDF>
      <cc:Work
         rdf:about="">
        <dc:format>image/svg+xml</dc:format>
        <dc:type
           rdf:resource="http://purl.org/dc/dcmitype/StillImage" />
        <dc:title />
      </cc:Work>
    </rdf:RDF>
  </metadata>
  <defs
     id="defs831" />
  <sodipodi:namedview
     pagecolor="#ffffff"
     bordercolor="#666666"
     borderopacity="1"
     objecttolerance="10"
     gridtolerance="10"
     guidetolerance="10"
     inkscape:pageopacity="0"
     inkscape:pageshadow="2"
     inkscape:window-width="1920"
     inkscape:window-height="1057"
     id="namedview829"
     showgrid="false"
     inkscape:zoom="0.4609375"
     inkscape:cx="268.80517"
     inkscape:cy="500.34542"
     inkscape:window-x="1912"
     inkscape:window-y="-8"
     inkscape:window-maximized="1"
     inkscape:current-layer="svg827"
     fit-margin-top="0"
     fit-margin-left="0"
     fit-margin-right="0"
     fit-margin-bottom="0" />
  <g
     id="g1483"
     transform="matrix(1.2866641,0,0,1.3339884,-1354.7651,-1305.5305)">
    <path
       id="path1386"
       d="m 1043.2758,1348.9667 c -13.3662,-19.1524 -31.2133,-44.7226 -39.6602,-56.8226 -54.04241,-77.4145 -69.84171,-100.0607 -98.37011,-141 -6.8988,-9.9 -28.8778,-41.4 -48.8423,-70 -19.9645,-28.6 -43.3599,-62.125 -51.9899,-74.5 -8.6301,-12.37501 -25.7396,-36.90001 -38.0213,-54.50001 -12.2816,-17.6 -31.1198,-44.6 -41.8626,-60 -10.7428,-15.4 -30.9955,-44.425 -45.006,-64.5 -44.4667,-63.7142 -47.7779,-68.474 -48.5223,-69.75 -0.5824,-0.9982 36.6988,-1.2396 185.0797,-1.1981 l 185.80901,0.052 -94.27041,47.198 c -55.0511,27.5623 -94.158,47.7008 -94,48.4066 0.1487,0.6646 8.4295,11.9146 18.4018,25 9.9722,13.0853 30.112,39.5415 44.7551,58.7915 14.6431,19.25 37.084,48.7118 49.8687,65.47071 12.7847,16.7589 29.0498,38.1339 36.1448,47.5 7.095,9.3661 17.7093,23.3293 23.5872,31.0293 16.20571,21.2292 37.48011,49.2012 58.94331,77.5 10.6373,14.025 20.0724,26.2804 20.9669,27.2341 1.5239,1.6249 1.9274,1.2468 6.402,-6 2.6266,-4.2537 18.7188,-29.3341 35.7604,-55.7341 17.0416,-26.4 37.2164,-57.675 44.833,-69.5 30.9799,-48.0974 57.3634,-89.08031 75.3212,-117.00001 10.4358,-16.225 26.8024,-41.65 36.3702,-56.5 9.5678,-14.85 17.4001,-27.225 17.4052,-27.5 0.01,-0.275 -6.178,-3.8271 -13.7401,-7.8936 -25.2637,-13.5853 -65.521,-35.1975 -87.7493,-47.1084 -12.1,-6.4837 -26.275,-14.0854 -31.5,-16.8928 -5.225,-2.8074 -17.2818,-9.2671 -26.7928,-14.3548 l -17.2929,-9.2504 90.0429,-0.2553 c 49.5235,-0.1405 130.4931,-0.1405 179.9325,0 l 89.8896,0.2553 -19.0398,30 c -10.4719,16.5 -32.1734,50.7 -48.2255,76 -16.0521,25.3 -42.4642,66.925 -58.6936,92.5 -16.2294,25.575 -42.4803,66.97501 -58.3353,92.00001 -15.8551,25.025 -39.4019,62.15 -52.3263,82.5 -12.9243,20.35 -36.621,57.7 -52.6592,83 -16.0382,25.3 -46.8468,73.9 -68.4636,108 -21.6168,34.1 -39.4258,62.1452 -39.5755,62.3226 -0.1498,0.1774 -11.2083,-15.3476 -24.5745,-34.5 z"
       style="fill:#000000"
       inkscape:connector-curvature="0" />
    <path
       id="path1384"
       d="m 1183.0055,1289.5779 c 0.8361,-1.4808 155.8741,-208.148 361.5379,-481.93381 l 92.7714,-123.50002 -265.493,-0.5 -265.4929,-0.5 24.2804,-3.85417 c 13.3543,-2.1198 33.9555,-5.39267 45.7805,-7.27306 11.825,-1.88038 28.475,-4.52756 37,-5.88262 8.525,-1.35506 25.625,-4.05295 38,-5.99531 12.375,-1.94237 32.4,-5.09746 44.5,-7.0113 12.1,-1.91385 32.125,-5.06153 44.5,-6.99484 12.375,-1.93331 29.475,-4.62823 38,-5.9887 8.525,-1.36047 25.4,-4.03631 37.5,-5.94629 12.1,-1.90999 32.125,-5.07362 44.5,-7.03029 12.375,-1.95667 32.625,-5.14409 45,-7.08316 12.375,-1.93907 30.825,-4.85032 41,-6.46945 10.175,-1.61913 28.625,-4.531 41,-6.47081 12.375,-1.93981 30.9375,-4.87087 41.25,-6.51347 10.3125,-1.64259 27.1875,-4.33047 37.5,-5.97306 17.7019,-2.81959 33.0999,-5.24533 86.25,-13.58743 12.375,-1.9423 27.8598,-4.41044 34.4107,-5.48475 6.5508,-1.07431 12.0591,-1.80479 12.2406,-1.62329 0.1815,0.1815 -8.5605,10.6467 -19.4266,23.256 -10.8662,12.6093 -33.6887,39.126 -50.7167,58.926 -17.028,19.8 -36.7803,42.75 -43.894,51 -7.1136,8.25 -29.1744,33.87749 -49.0239,56.95002 -19.8496,23.0724 -49.1401,57.0913 -65.0901,75.5975 -15.95,18.5062 -46.55,54.0529 -68,78.9928 -21.45,24.9398 -42.375,49.2196 -46.5,53.9551 -4.125,4.7355 -18.075,20.9326 -31,35.99351 -12.925,15.0609 -28.225,32.8415 -34,39.5123 -12.5074,14.4476 -66.363,77.0137 -101.9217,118.4063 -13.9819,16.2759 -36.4819,42.3699 -50,57.9867 -13.5181,15.6169 -25.9283,30.0292 -27.5783,32.0274 -4.4967,5.4457 -27.6121,32.4288 -28.7654,33.5784 -0.6705,0.6684 -0.7099,0.4807 -0.1189,-0.5662 z"
       style="fill:#000000"
       inkscape:connector-curvature="0" />
    <path
       id="path1380"
       d="m 895.29389,1257.9253 c -36.1513,-42.059 -115.6487,-134.3427 -148.4041,-172.2733 -14.85,-17.1963 -28.575,-33.1807 -30.5,-35.521 -1.925,-2.3403 -19.925,-23.2832 -40,-46.5397 -54.3984,-63.01961 -87.3794,-101.31001 -207.9321,-241.40581 -36.9716,-42.96512 -64.4162,-74.82742 -102.1058,-118.54142 -51.4838,-59.71309 -59.817,-69.47841 -59.5321,-69.76325 0.1509,-0.15094 7.4284,0.86739 16.1722,2.26296 57.9227,9.24482 117.1069,18.61684 154.3978,24.44943 31.3915,4.90987 69.0728,10.84715 89.25,14.06273 10.3125,1.64347 27.3,4.33813 37.75,5.98813 10.45,1.65 27.4375,4.34394 37.75,5.98653 10.3125,1.6426 28.875,4.57493 41.25,6.5163 12.375,1.94136 32.175,5.06702 44,6.94591 11.825,1.87888 30.5,4.82265 41.5,6.54171 21.5537,3.36837 42.3713,6.65259 82.5,13.01532 48.016,7.61332 62.5227,9.90375 83,13.10475 11.275,1.76249 30.625,4.8878 43,6.94514 l 22.5,3.74061 -265.25,0.10186 c -145.8875,0.056 -265.25,0.38619 -265.25,0.7337 0,0.3475 70.2916,94.28499 156.2035,208.74999 85.9119,114.46501 187.4403,249.74321 225.6187,300.61821 38.1784,50.875 69.867,93.0625 70.419,93.75 0.5521,0.6875 0.793,1.25 0.5353,1.25 -0.2576,0 -12.3502,-13.8235 -26.8724,-30.7188 z"
       style="fill:#000000"
       inkscape:connector-curvature="0" />
  </g>
</svg>
