<?xml version="1.0" encoding="UTF-8" standalone="no"?>
<!-- Created with Inkscape (http://www.inkscape.org/) -->

<svg
   xmlns:dc="http://purl.org/dc/elements/1.1/"
   xmlns:cc="http://creativecommons.org/ns#"
   xmlns:rdf="http://www.w3.org/1999/02/22-rdf-syntax-ns#"
   xmlns:svg="http://www.w3.org/2000/svg"
   xmlns="http://www.w3.org/2000/svg"
   xmlns:sodipodi="http://sodipodi.sourceforge.net/DTD/sodipodi-0.dtd"
   xmlns:inkscape="http://www.inkscape.org/namespaces/inkscape"
   width="170.01067mm"
   height="170.01067mm"
   viewBox="0 0 170.01067 170.01067"
   version="1.1"
   id="svg8"
   inkscape:version="0.92.3 (2405546, 2018-03-11)"
   sodipodi:docname="Logo 03.svg">
  <defs
     id="defs2" />
  <sodipodi:namedview
     id="base"
     pagecolor="#ffffff"
     bordercolor="#666666"
     borderopacity="1.0"
     inkscape:pageopacity="0.0"
     inkscape:pageshadow="2"
     inkscape:zoom="0.35"
     inkscape:cx="-104.14182"
     inkscape:cy="320.02016"
     inkscape:document-units="mm"
     inkscape:current-layer="layer1"
     showgrid="false"
     fit-margin-top="0"
     fit-margin-left="0"
     fit-margin-right="0"
     fit-margin-bottom="0"
     inkscape:window-width="1920"
     inkscape:window-height="1057"
     inkscape:window-x="1912"
     inkscape:window-y="-8"
     inkscape:window-maximized="1" />
  <metadata
     id="metadata5">
    <rdf:RDF>
      <cc:Work
         rdf:about="">
        <dc:format>image/svg+xml</dc:format>
        <dc:type
           rdf:resource="http://purl.org/dc/dcmitype/StillImage" />
        <dc:title></dc:title>
      </cc:Work>
    </rdf:RDF>
  </metadata>
  <g
     inkscape:label="Layer 1"
     inkscape:groupmode="layer"
     id="layer1"
     transform="translate(-19.994667,-63.494667)">
    <path
       style="fill:#000000;stroke-width:0.08466667"
       d="m 102.50172,216.36035 v -6.477 h 2.667 2.667 v 0.84666 0.84667 h -1.69333 -1.69333 v 1.905 1.905 h 1.43933 1.43933 v 0.84667 0.84666 h -1.43933 -1.43933 v 2.032 2.032 h 1.73566 1.73567 v 0.84667 0.84667 h -2.70933 -2.70934 z m -2.709332,3.61075 c 0,-0.0397 -0.84274,-1.78282 -1.87276,-3.8735 -1.03003,-2.09069 -2.30135,-4.67755 -2.82516,-5.74859 -0.52381,-1.07103 -2.06717,-4.21428 -3.42968,-6.985 -1.36252,-2.77071 -2.98225,-6.06636 -3.59942,-7.32366 -0.61716,-1.2573 -1.70286,-3.4671 -2.41266,-4.91067 -0.7098,-1.44357 -1.77644,-3.61527 -2.3703,-4.826 -0.59387,-1.21073 -1.6987,-3.45863 -2.45518,-4.99533 -0.75648,-1.5367 -1.86144,-3.7846 -2.45545,-4.99534 -1.08571,-2.2129 -1.61226,-3.28455 -6.01131,-12.23433 -1.3161,-2.67758 -2.87885,-5.85893 -3.47276,-7.06967 -0.59392,-1.21073 -1.76368,-3.59394 -2.59947,-5.29601 l -1.51961,-3.09467 1.27705,-1.43957 c 0.70237,-0.79176 2.15258,-2.4281 3.22267,-3.63632 1.0701,-1.20822 2.82385,-3.18736 3.89722,-4.39809 3.32847,-3.75441 11.02453,-12.44566 12.38608,-13.98775 0.88682,-1.0044 1.32992,-1.4468 1.40439,-1.40215 0.36572,0.21928 3.68972,2.70195 3.6909,2.7567 7.7e-4,0.0367 -1.89204,2.4942 -4.2063,5.461 -4.13821,5.30504 -13.2935,17.0483 -13.74356,17.62853 l -0.22986,0.29633 0.81484,1.651 c 0.44816,0.90805 1.54603,3.1369 2.4397,4.953 0.89367,1.8161 2.4505,4.9784 3.45962,7.02734 1.00912,2.04893 2.30206,4.67783 2.87319,5.842 0.57114,1.16416 1.75251,3.56446 2.62529,5.334 0.87277,1.76953 2.09177,4.24603 2.70889,5.50333 1.74094,3.54696 3.99616,8.11909 5.44996,11.049 l 1.32335,2.667 0.051,-21.209 c 0.0281,-11.66495 0.0566,-26.5384 0.0635,-33.0521 l 0.0125,-11.84311 0.52917,0.059 c 0.85963,0.0958 4.9961,0.72848 5.07291,0.77595 0.10491,0.0648 0.0908,91.38897 -0.0141,91.38897 -0.0466,0 -0.0847,-0.0325 -0.0847,-0.0722 z m 10.244672,-45.60043 c 0,-25.11996 0.0318,-45.6923 0.0706,-45.71629 0.0768,-0.0475 4.21329,-0.68019 5.07292,-0.77595 l 0.52916,-0.059 0.0125,11.84311 c 0.007,6.5137 0.0354,21.38715 0.0635,33.0521 l 0.051,21.209 1.32335,-2.667 c 1.4538,-2.92991 3.70902,-7.50204 5.44997,-11.049 0.61711,-1.2573 1.83611,-3.7338 2.70888,-5.50333 0.87277,-1.76954 2.05415,-4.16984 2.62529,-5.334 0.57113,-1.16417 1.86407,-3.79307 2.87319,-5.842 1.00912,-2.04894 2.56596,-5.21124 3.45962,-7.02734 0.89367,-1.8161 1.99154,-4.04495 2.4397,-4.953 l 0.81485,-1.651 -0.22987,-0.29633 c -0.45006,-0.58023 -9.60535,-12.32349 -13.74356,-17.62853 -2.31427,-2.9668 -4.2071,-5.42425 -4.2063,-5.461 0.001,-0.0548 3.32518,-2.53742 3.6909,-2.7567 0.0745,-0.0446 0.51757,0.39775 1.40439,1.40215 1.36156,1.54209 9.05761,10.23334 12.38608,13.98775 1.07337,1.21073 2.82712,3.18987 3.89721,4.39809 1.07011,1.20822 2.52031,2.84456 3.22269,3.63632 l 1.27704,1.43957 -1.51961,3.09467 c -0.83579,1.70207 -2.00555,4.08528 -2.59946,5.29601 -0.59392,1.21074 -2.15667,4.39209 -3.47277,7.06967 -4.39905,8.94978 -4.9256,10.02143 -6.0113,12.23433 -0.59403,1.21074 -1.69898,3.45864 -2.45546,4.99534 -0.75648,1.5367 -1.86131,3.7846 -2.45518,4.99533 -0.59386,1.21073 -1.6605,3.38243 -2.3703,4.826 -0.7098,1.44357 -1.79549,3.65337 -2.41266,4.91067 -0.61716,1.2573 -2.2369,4.55295 -3.59942,7.32366 -1.36251,2.77072 -2.90587,5.91397 -3.42968,6.985 -0.52381,1.07104 -1.79513,3.6579 -2.82515,5.74859 -1.03002,2.09068 -1.87277,3.83376 -1.87277,3.8735 0,0.0397 -0.0381,0.0722 -0.0847,0.0722 -0.0563,0 -0.0847,-15.28067 -0.0847,-45.67268 z m -5.842,22.60101 v -6.477 h 0.93133 0.93133 v 6.477 6.477 h -0.93133 -0.93133 z m -2.20134,-19.39285 v -6.48118 l 2.8575,0.0254 c 3.07223,0.0272 3.09969,0.0312 3.33922,0.4786 0.16558,0.3093 0.16002,5.73689 -0.006,6.0476 -0.14823,0.27708 -0.48616,0.41734 -1.15253,0.47837 l -0.52533,0.0481 1.04152,2.87867 c 0.57284,1.58326 1.04339,2.90724 1.04567,2.94216 0.002,0.0349 -0.44352,0.063 -0.99068,0.0624 l -0.99483,-0.001 -1.0804,-3.06807 c -0.94408,-2.68097 -1.08029,-3.13485 -1.0795,-3.59725 l 8.8e-4,-0.52915 h 0.97366 0.97367 v -2.032 -2.032 h -1.22767 -1.22766 v 5.63033 5.63033 h -0.97367 -0.97367 z m 2.18475,-15.46865 -0.0258,-2.56117 -0.48447,-1.397 c -0.51089,-1.4732 -2.01319,-6.21756 -2.01319,-6.3578 0,-0.0499 0.38757,-0.0729 0.98445,-0.0584 l 0.98445,0.0238 0.73496,2.667 c 0.40423,1.46685 0.75293,2.71803 0.7749,2.78039 0.022,0.0624 0.38171,-1.13777 0.79943,-2.667 l 0.75947,-2.78039 0.99484,-0.0238 c 0.54715,-0.0131 0.99483,-0.006 0.99483,0.0159 0,0.0727 -1.69752,5.41928 -1.85908,5.85548 -0.0874,0.23587 -0.2763,0.83211 -0.41988,1.32498 l -0.26104,0.89612 v 2.42153 2.42154 h -0.96909 -0.96909 z m -1.93075,-23.3045 v -6.477 h 0.97248 0.97248 l 0.0224,2.68698 0.0224,2.68698 1.05591,-2.68698 1.05592,-2.68698 h 1.03958 c 0.57178,0 1.03959,0.0347 1.03959,0.0772 0,0.0425 -0.57739,1.42359 -1.28308,3.06917 -0.7057,1.64557 -1.28263,3.03005 -1.28207,3.07662 8.5e-4,0.0466 0.63834,1.53247 1.41728,3.302 0.77894,1.76953 1.4366,3.26613 1.46146,3.32577 0.0356,0.0855 -0.18192,0.10341 -1.02946,0.0847 l -1.07465,-0.0238 -1.20024,-2.83502 -1.20024,-2.83502 -0.0223,2.85619 -0.0223,2.85618 h -0.97254 -0.97254 z m -41.569712,1.63483 c -0.80989,-1.64423 -2.30834,-4.68495 -3.32989,-6.75716 -1.02154,-2.07222 -2.30521,-4.68207 -2.8526,-5.79967 -1.62924,-3.32644 -6.99773,-14.22848 -7.57699,-15.38694 -0.22669,-0.45335 -0.39573,-0.83839 -0.37565,-0.85566 0.0201,-0.0173 2.79876,-1.90934 6.17484,-4.20462 8.57071,-5.82692 10.39803,-7.07083 12.21083,-8.312254 0.87184,-0.59704 1.6183,-1.085532 1.65881,-1.085532 0.0405,0 0.47562,0.600072 0.96692,1.333502 0.49129,0.733424 1.86858,2.781304 3.06064,4.550834 l 2.1674,3.21733 3.66253,0.0423 3.66254,0.0423 0.11198,2.2728 c 0.0616,1.25005 0.0997,2.28465 0.0847,2.29913 -0.015,0.0145 -2.23711,0.0538 -4.93798,0.0875 -4.73963,0.059 -4.91545,0.0556 -5.04803,-0.0978 -0.0756,-0.0874 -1.27029,-1.75914 -2.65497,-3.71494 -1.38468,-1.9558 -2.58017,-3.61812 -2.65663,-3.69403 -0.12866,-0.12774 -0.22257,-0.0804 -1.25873,0.635 -0.61583,0.42516 -3.10202,2.11996 -5.52487,3.76621 -2.42285,1.64625 -4.41934,3.01785 -4.43665,3.048 -0.0173,0.0302 0.93494,2.01697 2.11611,4.41515 1.18117,2.39818 2.93598,5.96053 3.89958,7.91633 0.96359,1.9558 2.35504,4.78473 3.09211,6.28651 0.73707,1.50177 1.36349,2.7305 1.39205,2.7305 0.0479,0 3.05509,-2.89661 6.63503,-6.39097 0.81492,-0.79543 2.68091,-2.60705 4.14664,-4.02581 1.46574,-1.41876 3.54108,-3.43148 4.61187,-4.47272 1.92652,-1.87336 1.94824,-1.89115 2.07636,-1.70056 0.21556,0.32069 2.4578,4.41209 2.4578,4.48473 0,0.0564 -10.94004,11.15083 -19.76876,20.04782 l -2.29442,2.31216 z m 81.827812,-2.40687 c -2.9332,-2.96918 -7.89532,-7.98545 -11.02693,-11.14727 -3.13161,-3.16182 -5.69383,-5.77918 -5.69383,-5.81636 0,-0.0726 2.24227,-4.16407 2.4578,-4.48472 0.12811,-0.19059 0.14984,-0.1728 2.07636,1.70056 1.07079,1.04124 3.14613,3.05396 4.61186,4.47272 1.46574,1.41876 3.33173,3.23038 4.14664,4.02581 3.57994,3.49436 6.58716,6.39097 6.63503,6.39097 0.0286,0 0.65498,-1.22873 1.39205,-2.7305 0.73707,-1.50178 2.12852,-4.33071 3.09212,-6.28651 0.96359,-1.9558 2.7184,-5.51815 3.89958,-7.91633 1.18117,-2.39818 2.13342,-4.385 2.11611,-4.41515 -0.0173,-0.0301 -2.01381,-1.40175 -4.43666,-3.048 -2.42284,-1.64625 -4.90903,-3.34105 -5.52487,-3.76621 -1.03616,-0.71536 -1.13006,-0.76274 -1.25872,-0.635 -0.0765,0.0759 -1.27196,1.73823 -2.65664,3.69403 -1.38468,1.9558 -2.57941,3.62752 -2.65497,3.71494 -0.13258,0.15341 -0.3084,0.15682 -5.04803,0.0978 -2.70086,-0.0336 -4.92295,-0.073 -4.93797,-0.0875 -0.015,-0.0145 0.0231,-1.04908 0.0847,-2.29913 l 0.11197,-2.2728 3.66254,-0.0423 3.66253,-0.0423 2.16739,-3.21733 c 1.19207,-1.76953 2.56936,-3.81741 3.06065,-4.550834 0.4913,-0.73343 0.92641,-1.333502 0.96692,-1.333502 0.0405,0 0.78697,0.488492 1.65881,1.085532 1.81279,1.241424 3.64012,2.485334 12.21083,8.312254 3.37608,2.29528 6.15514,4.18773 6.17567,4.20545 0.0205,0.0177 -0.12036,0.34562 -0.31312,0.72866 -0.50359,1.00077 -4.22264,8.54608 -5.10068,10.34844 -0.40835,0.8382 -1.60622,3.2766 -2.66195,5.41867 -1.05572,2.14207 -2.63172,5.34247 -3.50219,7.112 -0.87048,1.76953 -2.13556,4.33449 -2.81128,5.6999 l -1.22859,2.48257 z m -39.7501,-18.61663 v -6.477 h 0.97367 0.97367 v 5.63033 5.63034 h 1.56633 1.56633 v 0.84666 0.84667 h -2.54 -2.54 z m -4.237692,6.30604 c -5.67558,-0.52125 -10.823,-3.96848 -13.41161,-8.98176 -0.94732,-1.83463 -1.50233,-3.53164 -1.7832,-5.45228 -0.18094,-1.23729 -0.18118,-3.59503 -5.1e-4,-4.826 0.99513,-6.779814 5.97037,-12.308348 12.57502,-13.973472 1.02008,-0.257177 2.28277,-0.442002 3.25966,-0.47713 l 0.762,-0.0274 0.0228,1.828934 0.0228,1.828933 -0.99645,0.100946 c -1.80288,0.182642 -3.02719,0.510085 -4.50359,1.204493 -4.65125,2.187652 -7.56577,6.782486 -7.56577,11.927696 0,3.63848 1.26595,6.67328 3.86996,9.27729 1.89947,1.89946 3.85813,2.99711 6.39862,3.58582 0.55471,0.12854 2.25077,0.34246 2.73215,0.3446 0.0358,1.7e-4 0.0549,0.82897 0.0423,1.84179 l -0.0228,1.8415 -0.33867,0.0113 c -0.18626,0.006 -0.66448,-0.0187 -1.0627,-0.0552 z m 11.580342,0.0347 c -0.0815,-0.0815 -0.0794,-3.67368 0.002,-3.67405 0.0349,-1.7e-4 0.50165,-0.0402 1.03717,-0.0891 2.22585,-0.20294 4.22895,-0.91189 6.1318,-2.17021 1.16238,-0.76865 2.86179,-2.46762 3.62939,-3.62843 1.48835,-2.25076 2.20072,-4.62024 2.20072,-7.32001 0,-5.14521 -2.91452,-9.740044 -7.56577,-11.927697 -1.4764,-0.694408 -2.70071,-1.021851 -4.50359,-1.204493 l -0.99645,-0.100946 0.0228,-1.828933 0.0228,-1.828934 0.762,0.0274 c 4.49049,0.161472 9.05135,2.41661 11.98817,5.927594 2.08248,2.489619 3.38434,5.374249 3.8465,8.523009 0.18068,1.23097 0.18043,3.58871 -8.5e-4,4.826 -1.07697,7.36465 -6.85426,13.18952 -14.18317,14.29999 -1.03771,0.15723 -2.31548,0.24731 -2.39402,0.16877 z m -8.44331,-19.34566 c 0,-0.0513 0.55245,-2.94172 1.22766,-6.423204 0.67522,-3.481484 1.22767,-6.354178 1.22767,-6.383767 0,-0.02959 0.45463,-0.0538 1.01029,-0.0538 0.88881,0 1.01565,0.01782 1.05475,0.148167 0.0731,0.243681 2.42229,12.538774 2.42229,12.677714 0,0.10662 -0.1563,0.12812 -0.93133,0.12812 -0.51223,0 -0.93316,-0.0286 -0.93541,-0.0635 -0.002,-0.0349 -0.0883,-0.57785 -0.19114,-1.2065 l -0.18706,-1.143 h -1.22311 -1.2231 l -0.18957,1.18534 c -0.10426,0.65193 -0.19175,1.19486 -0.19442,1.2065 -0.003,0.0116 -0.42396,0.0212 -0.93619,0.0212 -0.62152,0 -0.93133,-0.031 -0.93133,-0.0932 z m 4.37974,-4.28827 c -0.0242,-0.12805 -0.22811,-1.38535 -0.45302,-2.794004 -0.22493,-1.408637 -0.42936,-2.561162 -0.45432,-2.561162 -0.0347,0 -0.57047,3.134072 -0.91546,5.355166 l -0.0362,0.23284 h 0.95152 0.95153 z m -25.419412,0.42984 c -0.18626,-0.0157 -1.48167,-0.10674 -2.87867,-0.20233 -1.397,-0.0956 -2.58119,-0.18697 -2.63153,-0.20308 -0.10939,-0.035 -4.45841,-6.636098 -4.47143,-6.78689 -0.005,-0.05754 0.60056,-0.518534 1.34563,-1.024441 4.24533,-2.882616 8.45062,-5.711666 8.54278,-5.747031 0.0657,-0.02519 1.00452,1.298125 2.46196,3.47007 l 2.35585,3.51079 -0.95651,1.197385 c -0.77602,0.971459 -0.97626,1.176329 -1.06123,1.085787 -0.0576,-0.06138 -0.66682,-0.9879 -1.35381,-2.058933 -0.68699,-1.071033 -1.29791,-1.999993 -1.3576,-2.064354 -0.0909,-0.098 -0.47771,0.133969 -2.38032,1.42744 -1.24948,0.849452 -2.30245,1.572857 -2.33993,1.607566 -0.0375,0.03471 0.35947,0.630611 0.88211,1.324227 0.52264,0.69362 0.95336,1.26744 0.95715,1.27516 0.004,0.008 1.03558,0.13901 2.29289,0.29176 1.2573,0.15275 2.29644,0.28387 2.3092,0.29139 0.0535,0.0315 -1.24672,2.661244 -1.30932,2.648254 -0.0377,-0.008 -0.22095,-0.0271 -0.40722,-0.0428 z m 47.655792,-1.27674 c -0.34515,-0.72329 -0.61709,-1.321224 -0.60433,-1.328744 0.0128,-0.008 1.05191,-0.13864 2.30921,-0.29139 1.2573,-0.15275 2.28909,-0.28404 2.29289,-0.29176 0.004,-0.008 0.4345,-0.58154 0.95714,-1.27516 0.52264,-0.693616 0.91959,-1.289519 0.88211,-1.324227 -0.0375,-0.03471 -1.09045,-0.758114 -2.33994,-1.607566 -1.90259,-1.293471 -2.28942,-1.525443 -2.38031,-1.42744 -0.0597,0.06436 -0.67061,0.993321 -1.35759,2.064354 -0.687,1.071033 -1.29621,1.997553 -1.35382,2.058933 -0.085,0.09054 -0.2852,-0.114328 -1.06123,-1.085787 l -0.95651,-1.197385 2.35585,-3.51079 c 1.45744,-2.171945 2.39632,-3.495262 2.46197,-3.47007 0.0922,0.03536 4.29744,2.864415 8.54277,5.747031 0.74507,0.505907 1.3506,0.966906 1.34563,1.024441 -0.013,0.150792 -4.36203,6.75187 -4.47143,6.78689 -0.0503,0.0161 -1.25358,0.10771 -2.67387,0.20354 -1.42028,0.0958 -2.74853,0.18908 -2.95166,0.20722 l -0.36935,0.033 z M 87.697478,92.847485 c -0.81377,-1.190259 -4.01867,-6.214043 -4.02566,-6.310348 -0.005,-0.06392 1.47747,-1.132237 3.29357,-2.37404 5.78107,-3.952946 12.86566,-8.784045 12.97517,-8.847981 0.0843,-0.04922 0.105832,1.349652 0.105832,6.877973 v 6.939762 l -0.825502,0.05285 c -0.45402,0.02907 -1.08267,0.07459 -1.397,0.101162 l -0.5715,0.04831 v -3.52226 c 0,-1.937243 -0.0286,-3.521233 -0.0635,-3.519977 -0.0349,0.0013 -1.03505,0.665091 -2.2225,1.475189 -1.18745,0.810098 -2.98767,2.034923 -4.0005,2.721833 -1.01282,0.68691 -1.8415,1.259978 -1.8415,1.273483 0,0.02606 0.62071,1.111547 1.46109,2.555153 0.28023,0.48138 0.47504,0.903561 0.4339,0.940324 -0.0411,0.03669 -0.75075,0.488894 -1.57709,1.00489 l -1.50244,0.938173 z M 120.5109,92.236806 c -0.82858,-0.52282 -1.52846,-0.972539 -1.55529,-0.999374 -0.0268,-0.02684 0.1796,-0.441114 0.45874,-0.920619 0.83956,-1.44222 1.46004,-2.527328 1.46004,-2.553372 0,-0.0135 -0.82868,-0.586573 -1.8415,-1.273483 -1.01283,-0.68691 -2.81305,-1.911735 -4.0005,-2.721833 -1.18745,-0.810098 -2.18758,-1.473933 -2.2225,-1.475189 -0.0349,-0.0013 -0.0635,1.582734 -0.0635,3.519977 v 3.52226 l -0.5715,-0.04831 c -0.31433,-0.02657 -0.94298,-0.0721 -1.397,-0.101162 l -0.8255,-0.05285 v -6.939762 c 0,-5.528321 0.0215,-6.927195 0.10583,-6.877973 0.10951,0.06394 7.1941,4.895035 12.97517,8.847981 1.8161,1.241803 3.29813,2.310576 3.29341,2.375052 -0.009,0.121652 -4.03547,6.391472 -4.21036,6.556039 -0.0734,0.06903 -0.48975,-0.153328 -1.60554,-0.857382 z m -16.40051,-5.178469 c 0,-0.0629 -2.34312,-12.389229 -2.41514,-12.705184 -0.0431,-0.189043 -0.036,-0.1905 0.93186,-0.1905 0.5364,0 0.97528,0.01414 0.97528,0.03141 0,0.01728 0.32359,2.008002 0.71909,4.423834 0.39549,2.415831 0.72376,4.52577 0.72949,4.688753 0.0134,0.380895 -0.0515,0.746613 0.80709,-4.550833 l 0.74443,-4.593167 h 0.95529 c 0.5254,0 0.95528,0.02234 0.95528,0.04964 0,0.04737 -2.19243,11.534134 -2.37816,12.459859 l -0.0892,0.4445 h -0.96767 c -0.53221,0 -0.96766,-0.02624 -0.96766,-0.05832 z"
       id="path21"
       inkscape:connector-curvature="0" />
  </g>
</svg>
