<?xml version="1.0" encoding="UTF-8" standalone="no"?>
<!-- Created with Inkscape (http://www.inkscape.org/) -->

<svg
   xmlns:dc="http://purl.org/dc/elements/1.1/"
   xmlns:cc="http://creativecommons.org/ns#"
   xmlns:rdf="http://www.w3.org/1999/02/22-rdf-syntax-ns#"
   xmlns:svg="http://www.w3.org/2000/svg"
   xmlns="http://www.w3.org/2000/svg"
   xmlns:sodipodi="http://sodipodi.sourceforge.net/DTD/sodipodi-0.dtd"
   xmlns:inkscape="http://www.inkscape.org/namespaces/inkscape"
   width="106.84215mm"
   height="144.85918mm"
   viewBox="0 0 106.84215 144.85918"
   version="1.1"
   id="svg8"
   inkscape:version="0.92.3 (2405546, 2018-03-11)"
   sodipodi:docname="Logo 04.svg">
  <defs
     id="defs2" />
  <sodipodi:namedview
     id="base"
     pagecolor="#ffffff"
     bordercolor="#666666"
     borderopacity="1.0"
     inkscape:pageopacity="0.0"
     inkscape:pageshadow="2"
     inkscape:zoom="0.7"
     inkscape:cx="212.04644"
     inkscape:cy="254.92277"
     inkscape:document-units="mm"
     inkscape:current-layer="layer1"
     showgrid="false"
     fit-margin-top="0"
     fit-margin-left="0"
     fit-margin-right="0"
     fit-margin-bottom="0"
     inkscape:window-width="1920"
     inkscape:window-height="1057"
     inkscape:window-x="1912"
     inkscape:window-y="-8"
     inkscape:window-maximized="1" />
  <metadata
     id="metadata5">
    <rdf:RDF>
      <cc:Work
         rdf:about="">
        <dc:format>image/svg+xml</dc:format>
        <dc:type
           rdf:resource="http://purl.org/dc/dcmitype/StillImage" />
        <dc:title></dc:title>
      </cc:Work>
    </rdf:RDF>
  </metadata>
  <g
     inkscape:label="Layer 1"
     inkscape:groupmode="layer"
     id="layer1"
     transform="translate(-51.578924,-76.07041)">
    <path
       style="fill:#000000;stroke-width:0.08466667"
       d="m 51.414274,293.16867 c -0.0414,-0.10477 -0.90214,-1.8669 -1.91286,-3.91583 -1.01073,-2.04893 -2.26633,-4.60163 -2.79023,-5.67267 -0.523877,-1.07103 -2.067297,-4.21428 -3.429807,-6.985 -1.36252,-2.77071 -2.98226,-6.06636 -3.59942,-7.32366 -0.61717,-1.2573 -1.70287,-3.4671 -2.41266,-4.91067 -0.7098,-1.44357 -1.77644,-3.61527 -2.37031,-4.826 -0.59386,-1.21074 -1.69869,-3.45864 -2.45517,-4.99534 -0.75649,-1.5367 -1.86144,-3.7846 -2.45546,-4.99533 -1.08571,-2.21291 -1.61226,-3.28455 -6.01131,-12.23433 -1.3161,-2.67759 -2.87884,-5.85894 -3.47276,-7.06967 -0.59391,-1.21073 -1.76367,-3.59394 -2.59946,-5.29601 l -1.51962,-3.09468 1.27705,-1.43956 c 0.70238,-0.79176 2.15258,-2.4281 3.22268,-3.63632 1.0701,-1.20822 2.82385,-3.18736 3.89722,-4.3981 3.32846,-3.75441 11.02452,-12.44566 12.38608,-13.98774 0.88682,-1.00441 1.32992,-1.4468 1.40438,-1.40216 0.36573,0.21929 3.68973,2.70195 3.69091,2.75671 8.5e-4,0.0367 -1.89204,2.49419 -4.20631,5.461 -4.1382,5.30504 -13.29349,17.0483 -13.74356,17.62853 l -0.22986,0.29633 0.81485,1.651 c 0.44816,0.90805 1.54602,3.1369 2.43969,4.953 0.89367,1.8161 2.45051,4.9784 3.45963,7.02733 1.00912,2.04894 2.30206,4.67784 2.87319,5.842 0.57113,1.16417 1.75251,3.56447 2.62528,5.334 0.87277,1.76954 2.09178,4.24604 2.70889,5.50334 1.74095,3.54696 3.99617,8.11909 5.44997,11.049 l 1.32335,2.667 0.051,-21.209 c 0.0281,-11.66495 0.0566,-26.53873 0.0635,-33.05283 l 0.0125,-11.84382 0.48683,0.0553 c 0.267747,0.0304 1.544097,0.21287 2.836327,0.40552 l 2.3495,0.35027 2.3495,-0.35027 c 1.29222,-0.19265 2.56857,-0.37513 2.83633,-0.40552 l 0.48684,-0.0553 0.0125,11.84382 c 0.007,6.5141 0.0354,21.38788 0.0635,33.05283 l 0.051,21.209 1.32335,-2.667 c 1.45379,-2.92991 3.70901,-7.50204 5.44996,-11.049 0.61711,-1.2573 1.83612,-3.7338 2.70889,-5.50334 0.87277,-1.76953 2.05415,-4.16983 2.62528,-5.334 0.57114,-1.16416 1.86408,-3.79306 2.87319,-5.842 1.00913,-2.04893 2.56596,-5.21123 3.45963,-7.02733 0.89367,-1.8161 1.99153,-4.04495 2.4397,-4.953 l 0.81484,-1.651 -0.22986,-0.29633 c -0.45006,-0.58023 -9.60536,-12.32349 -13.74356,-17.62853 -2.31427,-2.96681 -4.2071,-5.42426 -4.20631,-5.461 10e-4,-0.0548 3.32518,-2.53742 3.69091,-2.75671 0.0745,-0.0446 0.51757,0.39775 1.40438,1.40216 1.36156,1.54208 9.05762,10.23333 12.38608,13.98774 1.07337,1.21074 2.82713,3.18988 3.89722,4.3981 1.0701,1.20822 2.52031,2.84456 3.22268,3.63632 l 1.27705,1.43956 -1.51962,3.09468 c -0.83578,1.70207 -2.00555,4.08528 -2.59946,5.29601 -0.59392,1.21073 -2.15666,4.39208 -3.47276,7.06967 -4.39905,8.94978 -4.9256,10.02142 -6.01131,12.23433 -0.59402,1.21073 -1.69897,3.45863 -2.45545,4.99533 -0.75648,1.5367 -1.86131,3.7846 -2.45518,4.99534 -0.59386,1.21073 -1.6605,3.38243 -2.37031,4.826 -0.70979,1.44357 -1.79549,3.65337 -2.41266,4.91067 -0.61716,1.2573 -2.2369,4.55295 -3.59941,7.32366 -1.36252,2.77072 -2.90593,5.91397 -3.42983,6.985 -0.52389,1.07104 -1.77949,3.62374 -2.79022,5.67267 -1.01073,2.04893 -1.87151,3.81106 -1.91286,3.91583 -0.0413,0.10478 -0.11516,0.1905 -0.16403,0.1905 -0.0489,0 -0.12268,-0.0857 -0.16403,-0.1905 z M 12.294597,213.67166 c -0.8099,-1.64421 -2.3083498,-4.68494 -3.3298898,-6.75716 -1.02155,-2.07222 -2.30522,-4.68207 -2.8526,-5.79967 -1.62924,-3.32643 -6.99772997,-14.22847 -7.577,-15.38693 -0.22668,-0.45335 -0.39572,-0.8384 -0.37564,-0.85566 0.0201,-0.0173 2.79876003,-1.90935 6.17484,-4.20462 8.5707098,-5.82692 10.3980298,-7.07083 12.2108298,-8.31226 0.87183,-0.59704 1.6183,-1.08553 1.65881,-1.08553 0.0405,0 0.47562,0.60007 0.96691,1.3335 0.49129,0.73343 1.86859,2.7813 3.06065,4.55084 l 2.16739,3.21733 3.66254,0.0423 3.66254,0.0423 0.11197,2.2728 c 0.0616,1.25004 0.0997,2.28465 0.0847,2.29913 -0.015,0.0145 -2.23711,0.0538 -4.93797,0.0875 -4.73963,0.059 -4.91545,0.0556 -5.04803,-0.0978 -0.0755,-0.0874 -1.27029,-1.75915 -2.65497,-3.71495 -1.38469,-1.9558 -2.58017,-3.61811 -2.65664,-3.69403 -0.12866,-0.12773 -0.22256,-0.0804 -1.25873,0.635 -0.61583,0.42517 -3.10202,2.11997 -5.5248598,3.76622 -2.42285,1.64625 -4.41934,3.01785 -4.43666,3.048 -0.0173,0.0302 0.93494,2.01696 2.11612,4.41515 1.18117,2.39818 2.9359798,5.96053 3.8995698,7.91633 0.9636,1.9558 2.35505,4.78473 3.09212,6.2865 0.73707,1.50178 1.36349,2.7305 1.39204,2.7305 0.0479,0 3.0551,-2.8966 6.63504,-6.39096 0.81491,-0.79544 2.6809,-2.60705 4.14664,-4.02581 1.46573,-1.41876 3.54107,-3.43149 4.61186,-4.47273 1.92653,-1.87335 1.94825,-1.89115 2.07636,-1.70055 0.21556,0.32069 2.4578,4.41209 2.4578,4.48473 0,0.0564 -10.94003,11.15083 -19.76875,20.04782 l -2.29442,2.31216 z m 71.752467,-2.40687 c -2.9332,-2.96917 -7.89532,-7.98545 -11.02693,-11.14726 -3.1316,-3.16182 -5.69383,-5.77918 -5.69383,-5.81636 0,-0.0726 2.24227,-4.16407 2.45781,-4.48472 0.12811,-0.1906 0.14983,-0.1728 2.07635,1.70055 1.07079,1.04124 3.14613,3.05397 4.61186,4.47273 1.46575,1.41876 3.33173,3.23037 4.14665,4.02581 3.57993,3.49436 6.58716,6.39096 6.63503,6.39096 0.0286,0 0.65498,-1.22872 1.39205,-2.7305 0.73707,-1.50177 2.12852,-4.3307 3.09212,-6.2865 0.96359,-1.9558 2.7184,-5.51815 3.89957,-7.91633 1.18117,-2.39819 2.13343,-4.385 2.11611,-4.41515 -0.0173,-0.0301 -2.0138,-1.40175 -4.43665,-3.048 -2.42285,-1.64625 -4.90903,-3.34105 -5.52487,-3.76622 -1.03616,-0.71536 -1.13007,-0.76273 -1.25873,-0.635 -0.0765,0.0759 -1.27195,1.73823 -2.65663,3.69403 -1.38468,1.9558 -2.57942,3.62753 -2.65497,3.71495 -0.13258,0.15341 -0.3084,0.15681 -5.04803,0.0978 -2.70087,-0.0336 -4.92295,-0.073 -4.93797,-0.0875 -0.015,-0.0145 0.0231,-1.04909 0.0847,-2.29913 l 0.11197,-2.2728 3.66254,-0.0423 3.66254,-0.0423 2.16739,-3.21733 c 1.19207,-1.76954 2.56936,-3.81741 3.06065,-4.55084 0.49129,-0.73343 0.9264,-1.3335 0.96692,-1.3335 0.0405,0 0.78696,0.48849 1.6588,1.08553 1.8128,1.24143 3.64013,2.48534 12.21083,8.31226 3.376086,2.29527 6.155136,4.18773 6.175666,4.20545 0.0205,0.0177 -0.12036,0.34562 -0.31311,0.72866 -0.5036,1.00077 -4.22264,8.54608 -5.100676,10.34844 -0.40835,0.8382 -1.60622,3.2766 -2.66195,5.41866 -1.05573,2.14207 -2.63172,5.34247 -3.50219,7.112 -0.87049,1.76954 -2.13556,4.3345 -2.81129,5.69991 l -1.22858,2.48256 z m -33.91246,-12.31017 c -5.680897,-0.52497 -10.822907,-3.96875 -13.411607,-8.98218 -0.94731,-1.83463 -1.50233,-3.53164 -1.78319,-5.45227 -0.18094,-1.23729 -0.18119,-3.59504 -5.1e-4,-4.826 0.99513,-6.77982 5.97037,-12.30835 12.575007,-13.97348 1.9882,-0.50125 4.5546,-0.63783 6.43467,-0.34245 4.82914,0.75871 8.92448,3.35729 11.61514,7.37004 1.33426,1.98988 2.2949,4.50474 2.6532,6.94589 0.18068,1.23096 0.18043,3.58871 -8.5e-4,4.826 -1.18561,8.10753 -8.01529,14.22728 -16.14385,14.46573 -0.66788,0.0196 -1.54014,0.006 -1.93836,-0.0313 z m 2.54437,-3.7288 c 2.22585,-0.20294 4.22894,-0.91189 6.1318,-2.17022 1.16237,-0.76865 2.86179,-2.46761 3.62939,-3.62843 1.48835,-2.25075 2.20072,-4.62023 2.20072,-7.32 0,-3.26488 -1.11925,-6.24743 -3.26848,-8.70983 -1.80541,-2.06847 -4.49007,-3.63723 -7.1719,-4.19084 -2.77639,-0.57314 -5.53454,-0.2426 -8.118997,0.97297 -4.65126,2.18765 -7.56577,6.78249 -7.56577,11.9277 0,3.63847 1.26594,6.67327 3.86995,9.27728 2.50868,2.50868 5.445817,3.78434 9.023287,3.91899 0.16298,0.006 0.73448,-0.0288 1.27,-0.0776 z M 32.231977,175.78483 c -0.18627,-0.0157 -1.48167,-0.10674 -2.87867,-0.20232 -1.397,-0.0956 -2.58119,-0.18697 -2.63153,-0.20309 -0.1094,-0.035 -4.45841,-6.63609 -4.47143,-6.78688 -0.005,-0.0575 0.60056,-0.51854 1.34563,-1.02444 4.24533,-2.88262 8.45062,-5.71167 8.54277,-5.74704 0.0657,-0.0252 1.00453,1.29813 2.46197,3.47007 l 2.35584,3.51079 -0.9565,1.19739 c -0.77603,0.97146 -0.97626,1.17633 -1.06124,1.08579 -0.0576,-0.0614 -0.66682,-0.9879 -1.35381,-2.05894 -0.68699,-1.07103 -1.29791,-1.99999 -1.3576,-2.06435 -0.0909,-0.098 -0.47771,0.13397 -2.38031,1.42744 -1.24948,0.84945 -2.30245,1.57286 -2.33993,1.60756 -0.0375,0.0347 0.35947,0.63062 0.88211,1.32423 0.52264,0.69362 0.95335,1.26744 0.95714,1.27516 0.004,0.008 1.03559,0.13902 2.29289,0.29176 1.2573,0.15275 2.29644,0.28388 2.30921,0.2914 0.0535,0.0315 -1.24672,2.66124 -1.30932,2.64824 -0.0377,-0.008 -0.22096,-0.0271 -0.40722,-0.0428 z m 37.580457,-1.27673 c -0.34515,-0.72329 -0.6171,-1.32123 -0.60434,-1.32874 0.0128,-0.008 1.05191,-0.13865 2.30921,-0.2914 1.2573,-0.15274 2.2891,-0.28404 2.29289,-0.29176 0.004,-0.008 0.4345,-0.58154 0.95714,-1.27516 0.52265,-0.69361 0.91959,-1.28952 0.88212,-1.32423 -0.0375,-0.0347 -1.09046,-0.75811 -2.33994,-1.60756 -1.9026,-1.29347 -2.28942,-1.52544 -2.38031,-1.42744 -0.0597,0.0644 -0.67061,0.99332 -1.3576,2.06435 -0.68699,1.07104 -1.2962,1.99756 -1.35381,2.05894 -0.085,0.0905 -0.28521,-0.11433 -1.06124,-1.08579 l -0.9565,-1.19739 2.35585,-3.51079 c 1.45743,-2.17194 2.39631,-3.49526 2.46196,-3.47007 0.0922,0.0354 4.29744,2.86442 8.54277,5.74704 0.74507,0.5059 1.35061,0.9669 1.34564,1.02444 -0.013,0.15079 -4.36204,6.75186 -4.47144,6.78688 -0.0503,0.0161 -1.25358,0.10771 -2.67386,0.20354 -1.42029,0.0958 -2.74854,0.18908 -2.95167,0.20723 l -0.36934,0.033 z m -30.498367,-8.42944 c -0.47384,-0.69306 -4.00607,-6.17762 -4.0466,-6.28323 -0.0436,-0.11348 -0.0131,-0.13476 9.02951,-6.306 2.956977,-2.01804 5.804947,-3.96622 6.328827,-4.3293 l 0.9525,-0.66014 0.9525,0.66014 c 0.52387,0.36308 3.37185,2.31126 6.32883,4.3293 9.04259,6.17124 9.07306,6.19252 9.02951,6.306 -0.0405,0.10561 -3.57276,5.59017 -4.04659,6.28323 l -0.24238,0.3545 -1.50243,-0.93818 c -0.82634,-0.51599 -1.53604,-0.96819 -1.5771,-1.00489 -0.0411,-0.0368 0.15367,-0.45894 0.43391,-0.94032 0.84038,-1.44361 1.46108,-2.52909 1.46108,-2.55515 0,-0.0135 -0.82867,-0.58658 -1.8415,-1.27349 -1.01282,-0.68691 -2.81305,-1.91173 -4.0005,-2.72183 -1.18745,-0.8101 -2.18757,-1.47393 -2.2225,-1.47519 -0.0349,-0.001 -0.0635,1.58149 -0.0635,3.5172 v 3.51949 l -0.6985,-0.0648 c -0.38417,-0.0357 -1.28905,-0.0648 -2.01083,-0.0648 -0.72178,0 -1.62666,0.0292 -2.01083,0.0648 l -0.6985,0.0648 v -3.51949 c 0,-1.93571 -0.0286,-3.51845 -0.0635,-3.5172 -0.0349,0.001 -1.03505,0.66509 -2.2225,1.47519 -1.187447,0.8101 -2.987677,2.03492 -4.000497,2.72183 -1.01283,0.68691 -1.8415,1.25998 -1.8415,1.27349 0,0.0261 0.6207,1.11154 1.46108,2.55515 0.28024,0.48138 0.47505,0.90356 0.43391,0.94032 -0.0411,0.0367 -0.75075,0.4889 -1.57709,1.00489 l -1.50244,0.93818 z"
       id="path43"
       inkscape:connector-curvature="0" />
  </g>
</svg>
