<?xml version="1.0" encoding="UTF-8" standalone="no"?>
<!-- Created with Inkscape (http://www.inkscape.org/) -->

<svg
   xmlns:dc="http://purl.org/dc/elements/1.1/"
   xmlns:cc="http://creativecommons.org/ns#"
   xmlns:rdf="http://www.w3.org/1999/02/22-rdf-syntax-ns#"
   xmlns:svg="http://www.w3.org/2000/svg"
   xmlns="http://www.w3.org/2000/svg"
   xmlns:sodipodi="http://sodipodi.sourceforge.net/DTD/sodipodi-0.dtd"
   xmlns:inkscape="http://www.inkscape.org/namespaces/inkscape"
   width="220.7491mm"
   height="126.64147mm"
   viewBox="0 0 220.7491 126.64147"
   version="1.1"
   id="svg8"
   inkscape:version="0.92.3 (2405546, 2018-03-11)"
   sodipodi:docname="Logo 00.svg">
  <defs
     id="defs2" />
  <sodipodi:namedview
     id="base"
     pagecolor="#ffffff"
     bordercolor="#666666"
     borderopacity="1.0"
     inkscape:pageopacity="0.0"
     inkscape:pageshadow="2"
     inkscape:zoom="0.98994949"
     inkscape:cx="520.64435"
     inkscape:cy="248.16504"
     inkscape:document-units="mm"
     inkscape:current-layer="layer1"
     showgrid="false"
     fit-margin-top="0"
     fit-margin-left="0"
     fit-margin-right="0"
     fit-margin-bottom="0"
     inkscape:window-width="1858"
     inkscape:window-height="1057"
     inkscape:window-x="54"
     inkscape:window-y="-8"
     inkscape:window-maximized="1"
     showguides="true"
     inkscape:pagecheckerboard="true"
     objecttolerance="20"
     inkscape:guide-bbox="true">
    <inkscape:grid
       type="xygrid"
       id="grid3766"
       originx="110.31307"
       originy="-95.141961" />
    <sodipodi:guide
       position="110.31307,148.27471"
       orientation="1,0"
       id="guide3768"
       inkscape:locked="false" />
  </sodipodi:namedview>
  <metadata
     id="metadata5">
    <rdf:RDF>
      <cc:Work
         rdf:about="">
        <dc:format>image/svg+xml</dc:format>
        <dc:type
           rdf:resource="http://purl.org/dc/dcmitype/StillImage" />
        <dc:title></dc:title>
      </cc:Work>
    </rdf:RDF>
  </metadata>
  <g
     inkscape:label="Layer 1"
     inkscape:groupmode="layer"
     id="layer1"
     transform="translate(115.68762,9.9626941)">
    <path
       style="fill:#000000;stroke-width:0.26458335"
       d="m 1.3554893,116.47044 c -0.21915,-0.35459 0.0303,-0.55933 4.7131404,-3.86803 C 29.01888,96.3866 50.216041,73.832092 62.431641,52.630217 c 3.67823,-6.3841 7.882823,-14.85312 7.882823,-15.87786 0,-0.42295 -0.21591,-0.48772 -6.614583,-1.98403 -16.38131,-3.83072 -29.403721,-7.07037 -29.729251,-7.3959 -0.14612,-0.14613 -0.21409,-0.31138 -0.15103,-0.36722 0.18869,-0.1671 54.341274,-6.52187 55.576554,-6.52187 0.98855,0 0.98455,0.38582 -0.0339,3.27131 -2.09886,5.94651 -7.29549,17.05693 -10.96893,23.45161 C 71.287914,59.575263 62.097561,71.100583 48.640801,84.51794 38.450131,94.67877 32.16154,99.94307 17.07906,110.93887 l -5.742699,4.18668 -4.5760513,0.71254 c -2.5168403,0.3919 -4.7210703,0.76157 -4.8983103,0.8215 -0.17724,0.0599 -0.4051701,-0.0252 -0.5065101,-0.18915 z m -17.9776663,-0.69965 -3.98975,-0.70391 -2.36025,-1.70526 c -14.1706,-10.23813 -22.05241,-16.68961 -31.98416,-26.17994 -16.5216,-15.787278 -29.484236,-32.807997 -38.124516,-50.059753 -3.00405,-5.99808 -6.73177,-15.00362 -6.73177,-16.2628 0,-0.2283 0.26997,-0.37579 0.687839,-0.37579 1.126161,0 54.983687,6.30691 55.478287,6.49671 0.58549,0.22468 0.58163,0.57316 -0.008,0.7508 -1.39232,0.41924 -22.65516,5.54886 -31.55157,7.61175 -2.546606,0.59051 -4.706036,1.1947 -4.798726,1.34264 -0.49214,0.78552 6.191796,13.88942 10.773326,21.121186 12.55473,19.817139 33.05353,40.786507 54.548839,55.801077 1.92815,1.34682 3.50573,2.5547 3.50573,2.68418 0,0.35405 -1.0613,0.25253 -5.444959,-0.52089 z m -3.1779,-29.60074 c -4.18705,-6.805248 -12.41322,-20.141727 -18.28039,-29.636637 -5.86716,-9.494906 -10.66757,-17.382796 -10.66757,-17.528646 0,-0.17406 5.13968,-0.26518 14.95726,-0.26518 13.43016,0 14.97375,0.043 15.11876,0.42086 0.11271,0.2937 -0.64926,1.23439 -2.52184,3.11338 -1.47584,1.48088 -2.68335,2.85218 -2.68335,3.04733 0,0.19515 1.768,3.22921 3.92888,6.74236 2.16089,3.513136 6.223719,10.137996 9.028529,14.721906 2.804797,4.583899 5.3007974,8.546929 5.5466574,8.806729 0.4291,0.45342 0.46344,0.45342 0.85667,0 0.38379,-0.44255 4.74699995,-7.400739 14.9480306,-23.838235 2.376221,-3.82894 4.3204,-7.10564 4.3204,-7.28156 0,-0.17591 -1.071559,-1.38644 -2.381249,-2.69006 -1.309691,-1.30362 -2.381251,-2.52253 -2.381251,-2.7087 0,-0.27167 2.885741,-0.32499 14.61823,-0.2701 14.467841,0.0677 14.618081,0.0739 14.603821,0.60228 -0.008,0.29365 -1.81092,3.44881 -4.00666,7.01146 -2.195741,3.56266 -5.095681,8.382556 -6.444311,10.710886 -2.93882,5.07372 -13.64991,22.638689 -20.4098203,33.469797 l -4.8713903,7.80521 -7.83329,0.07 -7.8332974,0.0701 z M 93.245024,23.217367 c -0.097,-0.097 -0.17639,-0.56624 -0.17639,-1.04272 0,-0.47648 -0.11907,-0.93991 -0.26459,-1.02985 -0.14552,-0.0899 -0.26458,-0.35148 -0.26458,-0.58121 0,-0.64764 2.913263,-0.26061 3.405713,0.45246 0.46071,0.66711 0.72918,0.66606 0.90429,-0.004 0.0761,-0.29104 0.32812,-0.52917 0.56002,-0.52917 0.33518,0 0.42165,0.30126 0.42165,1.46904 v 1.46903 l -1.38907,-0.08 -1.389063,-0.08 -0.0814,-1.12448 c -0.13107,-1.81163 -1.10926,-1.38423 -1.10926,0.48466 0,0.73953 -0.241,0.97208 -0.61736,0.59572 z M -102.92406,11.218358 c -0.77352,-0.89667 -12.76356,-20.4553966 -12.76356,-20.8205306 0,-0.262015 0.82437,-0.34157 3.53948,-0.34157 2.94683,0 3.59932,0.07211 3.89689,0.430661 0.19658,0.236864 1.97381,3.064598 3.9494,6.283855 1.97559,3.21925631 3.75493,5.8531933 3.95409,5.8531933 0.370307,0 6.355967,-9.4450913 6.355967,-10.0294263 0,-0.177437 -0.35718,-0.664821 -0.79375,-1.083074 -1.46958,-1.407952 -1.32014,-1.455209 4.6019,-1.455209 4.42801,0 5.42162,0.06767 5.54046,0.377355 0.0796,0.207546 -0.48115,1.427936 -1.24621,2.711979 -0.76506,1.284044 -2.06938,3.562221 -2.8985,5.062616 -1.72532,3.1221893 -6.78832,11.4014503 -7.75662,12.6839906 l -0.64921,0.85989 h -2.63495 c -2.313927,0 -2.691057,-0.065 -3.095387,-0.53373 z m 115.876851,0.21623 c -0.2196,-0.21961 -0.3175,-1.5807703 -0.3175,-4.4147203 V 2.9226487 L 6.2860197,-3.2723966 c -3.4921103,-3.407274 -6.28305035,-6.302212 -6.20210035,-6.433195 0.081,-0.130983 1.86700005,-0.238151 3.96900005,-0.238151 h 3.8218203 l 3.9310913,3.836459 c 2.1621,2.110052 4.038839,3.836458 4.170529,3.836458 0.13169,0 1.60528,-1.369722 3.27463,-3.043827 2.74902,-2.756839 3.00431,-3.093276 2.70767,-3.568285 -0.18014,-0.288452 -0.32753,-0.645136 -0.32753,-0.792631 0,-0.3934514 10.11984,-0.3612464 10.51455,0.03346 0.35922,0.359227 -3.36033,4.509759 -8.85843,9.88482431 l -3.51832,3.43958299 0.005,3.616379 c 0.003,1.98901 -0.0672,3.8047103 -0.15555,4.0349003 -0.13377,0.34861 -0.67733,0.41851 -3.25437,0.41851 -2.053489,0 -3.200539,-0.10676 -3.411279,-0.3175 z m 69.683523,0.11933 c -2.54786,-0.0486 -4.35281,-0.19502 -4.56406,-0.37035 -0.27744,-0.23025 -0.34946,-2.2088903 -0.34946,-9.6008303 v -9.3108113 l -0.79375,-0.76046 c -1.5734,-1.507412 -2.0612,-1.455209 13.59774,-1.455209 11.849256,0 14.415736,0.0632 14.528776,0.357771 0.0755,0.196774 -0.58016,1.565993 -1.45704,3.042709 l -1.59433,2.684937 -2.284977,0.02911 c -1.256716,0.01601 -4.987679,0.04578 -8.290999,0.06615 -6.15242,0.03794 -6.82857,0.150502 -6.47281,1.077585 0.13859,0.361165 1.01109,0.414659 6.76311,0.414659 5.709363,0 6.661513,0.05753 7.028629,0.424642 0.3898,0.389801 0.36608,0.525481 -0.289116,1.65364631 -0.39257,0.675952 -1.14386,1.88384799 -1.66954,2.68421199 l -0.95577,1.455209 -5.361213,0.07166 c -4.46272,0.05965 -5.3866,0.137811 -5.51268,0.46639 -0.0833,0.217104 -0.005,0.57181 0.1751,0.78824 0.26838,0.32337 1.23528,0.3935 5.42526,0.3935 4.4549,0 5.119423,0.0541 5.263063,0.42842 0.15685,0.40874 -1.159283,2.7751 -2.668073,4.7971103 l -0.64164,0.85989 -2.83081,-0.0589 c -1.55694,-0.0324 -4.72737,-0.0951 -7.04541,-0.13925 z m -172.482967,-0.2428 c -0.097,-0.097 -0.17639,-0.33053 -0.17639,-0.51892 0,-0.18839 2.20266,-4.3133303 4.8948,-9.1665343 2.69213,-4.8532033 4.89479,-9.0027273 4.89479,-9.2211633 0,-0.218436 -0.35719,-0.739364 -0.79375,-1.157618 -0.43657,-0.418253 -0.79375,-0.859764 -0.79375,-0.981136 0,-0.121371 2.33643,-0.188393 5.19207,-0.148936 l 5.192066,0.07174 5.64325,10.18645931 c 3.10379,5.60254799 5.64892,10.39847829 5.65585,10.65761829 0.0115,0.4308 -0.2651,0.4648 -3.22855,0.39688 l -3.24115,-0.0743 -1.05833,-1.7857203 -1.05833,-1.78572 -5.88487,-2.2e-4 -5.884876,-2.2e-4 -1.23155,1.85208 -1.23155,1.8520903 h -3.35667 c -1.84617,0 -3.43604,-0.0794 -3.53306,-0.17639 z M -72.560537,1.1280387 c 0,-0.46210299 -1.84425,-3.6634473 -2.11046,-3.6634473 -0.31858,0 -2.122876,3.00904131 -2.122876,3.5403403 0,0.359124 0.34233,0.42841 2.116666,0.42841 1.42293,0 2.11667,-0.100063 2.11667,-0.305303 z m 16.1925,10.0419693 c -0.23489,-0.23489 -0.3175,-2.7347903 -0.3175,-9.6077903 v -9.2902913 l -0.79375,-0.76046 c -1.41759,-1.358133 -1.20795,-1.455209 3.1426,-1.455209 3.33673,0 3.99167,0.06657 4.29948,0.437018 0.28082,0.337965 0.39311,2.092068 0.49542,7.739063 l 0.13229,7.3020393 7.35033,0.0703 7.35033,0.0703 0.25644,0.67449 c 0.28331,0.74516 0.33985,3.60912 0.0897,4.5426403 l -0.15953,0.59531 h -10.76414 c -8.01933,0 -10.8451,-0.081 -11.08164,-0.3175 z m 25.93704,0.008 c -0.24497,-0.24496 -0.32538,-2.5986003 -0.32538,-9.5236633 v -9.1984243 l -0.79375,-0.904031 c -0.43656,-0.497217 -0.79375,-1.037141 -0.79375,-1.199831 0,-0.4415124 7.7798,-0.4081544 8.14621,0.03493 0.15043,0.181901 0.36026,1.858304 0.46631,3.72534 0.16687,2.937978 0.25011,3.378774 0.61879,3.27688 0.23429,-0.06475 2.80471,-1.741154 5.71203,-3.72534 l 5.286039,-3.60761 4.503547,0.0041 c 4.9396204,0.0044 5.7299704,0.187337 4.6358304,1.072761 -2.15363,1.742801 -4.7570004,3.6564 -7.6031874,5.588712 -1.94428,1.31999 -3.239,2.37358231 -3.24115,2.63751831 -0.002,0.241726 0.38337,0.758695 0.85631,1.148821 1.36249,1.12389999 10.7817774,10.52936729 10.7817774,10.76594729 0,0.11739 -1.81833,0.21344 -4.04074,0.21344 H -10.26285 l -2.243118,-2.2683703 c -1.23371,-1.2476 -3.284769,-3.22489 -4.557909,-4.393976 l -2.3148,-2.125609 -1.86709,1.275721 c -1.02689,0.701647 -1.97421,1.404804 -2.10515,1.562574 -0.13093,0.15777 -0.33268,1.53121 -0.44832,3.05211 l -0.21026,2.7652603 -3.04807,0.074 c -2.14561,0.0521 -3.1444,-0.0223 -3.37343,-0.25135 z m 66.410408,0 c -0.24497,-0.24497 -0.32537,-2.6003603 -0.32537,-9.5321073 v -9.2067383 l -0.954471,-1.056489 c -0.73286,-0.81119 -0.8643,-1.091093 -0.56609,-1.205527 0.21361,-0.08197 5.137741,-0.11291 10.942501,-0.06875 l 10.5541,0.08029 1.45521,0.690341 c 2.76075,1.309678 4.22684,3.390683 4.43461,6.294604 0.19432,2.71585031 -0.42625,4.5271943 -2.10121,6.1331303 l -1.33825,1.283099 1.94982,2.707767 c 2.25915,3.1373403 2.61083,3.7121203 2.44016,3.9882603 -0.21879,0.35402 -6.56054,0.23773 -7.03323,-0.12897 -0.23448,-0.1819 -1.32825,-1.5511203 -2.43059,-3.0427103 l -2.00426,-2.71198 h -4.07334 -4.07333 l -0.22738,2.97656 -0.22737,2.9765703 -3.04807,0.074 c -2.14562,0.0521 -3.1444,-0.0223 -3.37344,-0.25135 z m 18.02749,-12.6741566 c 0.87891,-0.691352 0.93141,-1.719593 0.10183,-1.994485 -0.61558,-0.20398 -10.39356,-0.339317 -10.98021,-0.151978 -0.20513,0.06551 -0.33073,0.597253 -0.33073,1.400224 v 1.29460931 h 5.25599 c 4.91671,0 5.30098,-0.0354 5.95312,-0.54837031 z m 12.34812,12.4720166 c -0.17357,-0.32431 -0.27389,-3.8436503 -0.27389,-9.6077923 v -9.0960193 l -0.79375,-0.76046 c -1.42426,-1.36452 -1.21912,-1.455209 3.291673,-1.455209 2.68015,0 4.14716,0.09988 4.26489,0.290377 0.28293,0.457786 0.47489,13.4770343 0.25807,17.5028533 l -0.19593,3.6380203 h -3.13858 c -2.83224,0 -3.16532,-0.05 -3.412483,-0.51177 z"
       id="path3764"
       inkscape:connector-curvature="0" />
  </g>
</svg>
