<?xml version="1.0" encoding="UTF-8" standalone="no"?>
<svg
   xmlns:dc="http://purl.org/dc/elements/1.1/"
   xmlns:cc="http://creativecommons.org/ns#"
   xmlns:rdf="http://www.w3.org/1999/02/22-rdf-syntax-ns#"
   xmlns:svg="http://www.w3.org/2000/svg"
   xmlns="http://www.w3.org/2000/svg"
   xmlns:sodipodi="http://sodipodi.sourceforge.net/DTD/sodipodi-0.dtd"
   xmlns:inkscape="http://www.inkscape.org/namespaces/inkscape"
   version="1.0"
   width="283.46457pt"
   height="170.07874pt"
   viewBox="0 0 283.46458 170.07874"
   preserveAspectRatio="xMidYMid meet"
   id="svg845"
   sodipodi:docname="Valkyrie_logo.svg"
   inkscape:version="0.92.3 (2405546, 2018-03-11)">
  <defs
     id="defs849" />
  <sodipodi:namedview
     pagecolor="#ffffff"
     bordercolor="#666666"
     borderopacity="1"
     objecttolerance="10"
     gridtolerance="10"
     guidetolerance="10"
     inkscape:pageopacity="0"
     inkscape:pageshadow="2"
     inkscape:window-width="1920"
     inkscape:window-height="1057"
     id="namedview847"
     showgrid="false"
     fit-margin-top="0"
     fit-margin-left="0"
     fit-margin-right="0"
     fit-margin-bottom="0"
     inkscape:zoom="2.4359829"
     inkscape:cx="157.90034"
     inkscape:cy="73.893317"
     inkscape:window-x="1912"
     inkscape:window-y="-8"
     inkscape:window-maximized="1"
     inkscape:current-layer="g843" />
  <metadata
     id="metadata833">
Created by potrace 1.10, written by Peter Selinger 2001-2011
<rdf:RDF>
  <cc:Work
     rdf:about="">
    <dc:format>image/svg+xml</dc:format>
    <dc:type
       rdf:resource="http://purl.org/dc/dcmitype/StillImage" />
    <dc:title></dc:title>
  </cc:Work>
</rdf:RDF>
</metadata>
  <g
     transform="matrix(0.05,0,0,-0.05,92.584518,255.21812)"
     id="g843"
     style="fill:#000000;stroke:none">
    <g
       id="g854"
       transform="matrix(1.3888362,0,0,1.493012,-3216.8544,1699.8014)">
      <path
         inkscape:connector-curvature="0"
         id="path835"
         d="m 992,2258 c 12,-15 143,-176 291,-358 411,-503 627,-770 1010,-1246 193,-240 355,-432 361,-427 5,5 -26,58 -69,116 -124,167 -1086,1556 -1096,1583 -7,18 153,24 681,24 379,0 690,5 690,11 0,8 -1265,226 -1830,316 -49,7 -56,4 -38,-19 z" />
      <path
         inkscape:connector-curvature="0"
         id="path837"
         d="m 4075,2124 c -492,-83 -895,-156 -895,-163 0,-6 310,-11 690,-11 379,0 690,-6 690,-12 0,-7 -16,-34 -37,-60 -20,-27 -116,-165 -214,-308 -98,-143 -347,-502 -554,-798 -207,-296 -372,-541 -368,-546 4,-4 115,125 246,288 130,163 318,395 417,517 99,122 209,257 243,300 175,217 373,462 517,637 88,107 181,221 208,253 l 47,59 -47,-3 c -27,-1 -451,-70 -943,-153 z" />
      <path
         inkscape:connector-curvature="0"
         id="path841"
         d="m 1995,1745 c -96,-4 -175,-10 -175,-15 0,-5 79,-121 175,-258 96,-138 364,-525 595,-860 231,-336 425,-610 430,-610 6,0 127,171 270,380 143,209 315,458 382,554 420,601 548,790 542,797 -13,13 -1034,34 -1034,22 0,-6 101,-68 225,-136 124,-69 228,-128 232,-131 13,-11 -12,-52 -178,-288 -90,-126 -222,-318 -294,-425 -155,-230 -140,-225 -235,-80 -42,63 -178,261 -303,439 -125,178 -227,331 -227,340 0,9 104,73 230,142 127,70 230,131 230,135 0,10 -570,5 -865,-6 z" />
    </g>
  </g>
</svg>
