0
SECTION
2
HEADER
9
$INSUNITS
70
4
9
$ACADVER
1
AC1014
9
$HANDSEED
5
FFFF
0
ENDSEC
0
SECTION
2
TABLES
0
TABLE
2
VPORT
5
8
100
AcDbSymbolTable
0
ENDTAB
0
TABLE
2
LTYPE
5
5
100
AcDbSymbolTable
0
LTYPE
5
14
100
AcDbSymbolTableRecord
100
AcDbLinetypeTableRecord
2
BYBLOCK
70
0
0
LTYPE
5
15
100
AcDbSymbolTableRecord
100
AcDbLinetypeTableRecord
2
BYLAYER
70
0
0
ENDTAB
0
TABLE
2
LAYER
5
2
100
AcDbSymbolTable
70
2
0
LAYER
5
50
100
AcDbSymbolTableRecord
100
AcDbLayerTableRecord
2
0
70
0
6
CONTINUOUS
0
ENDTAB
0
TABLE
2
STYLE
5
3
100
AcDbSymbolTable
70
1
0
STYLE
5
11
100
AcDbSymbolTableRecord
100
AcDbTextStyleTableRecord
2
STANDARD
70
0
0
ENDTAB
0
TABLE
2
VIEW
5
6
100
AcDbSymbolTable
70
0
0
ENDTAB
0
TABLE
2
UCS
5
7
100
AcDbSymbolTable
70
0
0
ENDTAB
0
TABLE
2
APPID
5
9
100
AcDbSymbolTable
70
2
0
APPID
5
12
100
AcDbSymbolTableRecord
100
AcDbRegAppTableRecord
2
ACAD
70
0
0
ENDTAB
0
TABLE
2
DIMSTYLE
5
A
100
AcDbSymbolTable
70
1
0
ENDTAB
0
TABLE
2
BLOCK_RECORD
5
1
100
AcDbSymbolTable
70
1
0
BLOCK_RECORD
5
1F
100
AcDbSymbolTableRecord
100
AcDbBlockTableRecord
2
*MODEL_SPACE
0
BLOCK_RECORD
5
1B
100
AcDbSymbolTableRecord
100
AcDbBlockTableRecord
2
*PAPER_SPACE
0
ENDTAB
0
ENDSEC
0
SECTION
2
BLOCKS
0
BLOCK
5
20
100
AcDbEntity
100
AcDbBlockBegin
2
*MODEL_SPACE
0
ENDBLK
5
21
100
AcDbEntity
100
AcDbBlockEnd
0
BLOCK
5
1C
100
AcDbEntity
100
AcDbBlockBegin
2
*PAPER_SPACE
0
ENDBLK
5
1D
100
AcDbEntity
100
AcDbBlockEnd
0
ENDSEC
0
SECTION
2
ENTITIES
0
LWPOLYLINE
5
100
100
AcDbEntity
8
0
100
AcDbPolyline
90
4
70
1
43
0.0
10
-848.79104149936234
20
395.66245721400196
10
-348.79104149936245
20
395.66245721400196
10
-348.79104149936239
20
-124.33754278599808
10
-848.79104149936234
20
-124.33754278599807
0
LWPOLYLINE
5
101
100
AcDbEntity
8
0
100
AcDbPolyline
90
4
70
1
43
0.0
10
-418.79104149936239
20
-124.33754278599808
10
-348.79104149936239
20
-124.33754278599808
10
-348.79104149936239
20
-104.33754278599808
10
-418.79104149936239
20
-104.33754278599808
0
LWPOLYLINE
5
102
100
AcDbEntity
8
0
100
AcDbPolyline
90
4
70
1
43
0.0
10
-778.79104149936234
20
-124.33754278599807
10
-848.79104149936234
20
-124.33754278599807
10
-848.79104149936234
20
-104.33754278599807
10
-778.79104149936234
20
-104.33754278599807
0
LINE
5
103
100
AcDbEntity
8
0
100
AcDbLine
10
-638.79104149936234
20
-104.33754278599807
30
0
11
-558.79104149936234
21
-104.33754278599807
31
0
0
LINE
5
104
100
AcDbEntity
8
0
100
AcDbLine
10
-558.79104149936234
20
-104.33754278599807
30
0
11
-558.79104149936234
21
-144.33754278599807
31
0
0
LINE
5
105
100
AcDbEntity
8
0
100
AcDbLine
10
-558.79104149936234
20
-144.33754278599807
30
0
11
-638.79104149936234
21
-144.33754278599807
31
0
0
LINE
5
106
100
AcDbEntity
8
0
100
AcDbLine
10
-638.79104149936234
20
-144.33754278599807
30
0
11
-638.79104149936234
21
-104.33754278599807
31
0
0
LINE
5
107
100
AcDbEntity
8
0
100
AcDbLine
10
-638.79104149936234
20
-104.33754278599807
30
0
11
-558.79104149936234
21
-144.33754278599807
31
0
0
LINE
5
108
100
AcDbEntity
8
0
100
AcDbLine
10
-558.79104149936234
20
-104.33754278599807
30
0
11
-638.79104149936234
21
-144.33754278599807
31
0
0
LINE
5
109
100
AcDbEntity
8
0
100
AcDbLine
10
-598.79104149936234
20
-104.33754278599807
30
0
11
-598.79104149936234
21
-74.337542785998068
31
0
0
LINE
5
110
100
AcDbEntity
8
0
100
AcDbLine
10
-598.79104149936234
20
-74.337542785998068
30
0
11
-578.79104149936234
21
-74.337542785998068
31
0
0
LINE
5
111
100
AcDbEntity
8
0
100
AcDbLine
10
-578.79104149936234
20
-74.337542785998068
30
0
11
-578.79104149936234
21
-104.33754278599807
31
0
0
LINE
5
112
100
AcDbEntity
8
0
100
AcDbLine
10
-348.79104149936245
20
375.66245721400202
30
0
11
-848.79104149936234
21
375.66245721400196
31
0
0
LWPOLYLINE
5
113
100
AcDbEntity
8
0
100
AcDbPolyline
90
4
70
1
43
0.0
10
-412.79104149936239
20
375.66245721400202
10
-392.79104149936239
20
375.66245721400202
10
-392.79104149936239
20
330.66245721400202
10
-412.79104149936239
20
330.66245721400207
0
LINE
5
114
100
AcDbEntity
8
0
100
AcDbLine
10
-402.79104149936239
20
330.66245721400207
30
0
11
-402.79104149936245
21
388.27699458961405
31
0
0
LWPOLYLINE
5
115
100
AcDbEntity
8
0
100
AcDbPolyline
90
4
70
1
43
0.0
10
-804.79104149936234
20
375.66245721400207
10
-804.79104149936234
20
330.66245721400202
10
-784.79104149936234
20
330.66245721400207
10
-784.79104149936234
20
375.66245721400202
0
ENDSEC
0
SECTION
2
OBJECTS
0
DICTIONARY
5
C
100
AcDbDictionary
3
ACAD_GROUP
350
D
3
ACAD_MLINESTYLE
350
17
0
DICTIONARY
5
D
100
AcDbDictionary
0
DICTIONARY
5
1A
330
C
100
AcDbDictionary
0
DICTIONARY
5
17
100
AcDbDictionary
0
ENDSEC
0
EOF
