0
SECTION
2
HEADER
9
$INSUNITS
70
4
9
$ACADVER
1
AC1014
9
$HANDSEED
5
FFFF
0
ENDSEC
0
SECTION
2
TABLES
0
TABLE
2
VPORT
5
8
100
AcDbSymbolTable
0
ENDTAB
0
TABLE
2
LTYPE
5
5
100
AcDbSymbolTable
0
LTYPE
5
14
100
AcDbSymbolTableRecord
100
AcDbLinetypeTableRecord
2
BYBLOCK
70
0
0
LTYPE
5
15
100
AcDbSymbolTableRecord
100
AcDbLinetypeTableRecord
2
BYLAYER
70
0
0
ENDTAB
0
TABLE
2
LAYER
5
2
100
AcDbSymbolTable
70
2
0
LAYER
5
50
100
AcDbSymbolTableRecord
100
AcDbLayerTableRecord
2
0
70
0
6
CONTINUOUS
0
ENDTAB
0
TABLE
2
STYLE
5
3
100
AcDbSymbolTable
70
1
0
STYLE
5
11
100
AcDbSymbolTableRecord
100
AcDbTextStyleTableRecord
2
STANDARD
70
0
0
ENDTAB
0
TABLE
2
VIEW
5
6
100
AcDbSymbolTable
70
0
0
ENDTAB
0
TABLE
2
UCS
5
7
100
AcDbSymbolTable
70
0
0
ENDTAB
0
TABLE
2
APPID
5
9
100
AcDbSymbolTable
70
2
0
APPID
5
12
100
AcDbSymbolTableRecord
100
AcDbRegAppTableRecord
2
ACAD
70
0
0
ENDTAB
0
TABLE
2
DIMSTYLE
5
A
100
AcDbSymbolTable
70
1
0
ENDTAB
0
TABLE
2
BLOCK_RECORD
5
1
100
AcDbSymbolTable
70
1
0
BLOCK_RECORD
5
1F
100
AcDbSymbolTableRecord
100
AcDbBlockTableRecord
2
*MODEL_SPACE
0
BLOCK_RECORD
5
1B
100
AcDbSymbolTableRecord
100
AcDbBlockTableRecord
2
*PAPER_SPACE
0
ENDTAB
0
ENDSEC
0
SECTION
2
BLOCKS
0
BLOCK
5
20
100
AcDbEntity
100
AcDbBlockBegin
2
*MODEL_SPACE
0
ENDBLK
5
21
100
AcDbEntity
100
AcDbBlockEnd
0
BLOCK
5
1C
100
AcDbEntity
100
AcDbBlockBegin
2
*PAPER_SPACE
0
ENDBLK
5
1D
100
AcDbEntity
100
AcDbBlockEnd
0
ENDSEC
0
SECTION
2
ENTITIES
0
LWPOLYLINE
5
100
100
AcDbEntity
8
0
100
AcDbPolyline
90
4
70
1
43
0.0
10
175.00000000000023
20
-165.34860659692171
10
-175.00000000000006
20
-165.34860659692171
10
-175
20
184.65139340307829
10
175
20
184.65139340307829
0
SPLINE
5
101
100
AcDbEntity
8
0
100
AcDbSpline
70
0
71
3
72
18
73
14
74
0
42
0.000000001
43
0.0000000001
44
0.0000000001
40
0
40
0
40
0
40
0
40
0.066052187146222796
40
0.066052187146222796
40
0.13495748532928628
40
0.13495748532928628
40
0.20671473867196627
40
0.20671473867196627
40
0.28132272351973403
40
0.28132272351973403
40
0.32859596045915851
40
0.32859596045915851
40
0.37694081721163614
40
0.37694081721163614
40
0.37694081721163614
40
0.37694081721163614
10
1.6117095221420956
20
-154.92676727177945
30
0
10
1.6915952755296999
20
-155.13193753720446
30
0
10
1.7297958813668288
20
-155.35097876434591
30
0
10
1.7217358248224599
20
-155.80118828387739
30
0
10
1.6718899097876205
20
-156.02793766351115
30
0
10
1.4858843584544801
20
-156.45928124527788
30
0
10
1.3481586946452782
20
-156.65824924467825
30
0
10
0.99845905641915822
20
-157.00035066025444
30
0
10
0.78730714591449846
20
-157.13754901623787
30
0
10
0.40946360777584229
20
-157.29072393741029
30
0
10
0.25623863418077258
20
-157.33212962465512
30
0
10
-0.060302298094026069
20
-157.37849154788773
30
0
10
-0.22260312680820132
20
-157.38243446177705
30
0
10
-0.38366799884657404
20
-157.36721909791368
30
0
0
ARC
5
102
100
AcDbEntity
8
0
100
AcDbCircle
10
5.3151927303929369e-14
20
-155.3486065969216
30
0
40
2.0547500000001326
210
0
220
0
230
1
100
AcDbArc
50
229.3330014193796
51
259.23842715205177
0
SPLINE
5
103
100
AcDbEntity
8
0
100
AcDbSpline
70
0
71
3
72
18
73
14
74
0
42
0.000000001
43
0.0000000001
44
0.0000000001
40
0
40
0
40
0
40
0
40
0.07852137471502342
40
0.07852137471502342
40
0.15418269973513843
40
0.15418269973513843
40
0.22698290664504617
40
0.22698290664504617
40
0.29692100396418725
40
0.29692100396418725
40
0.33830353049655215
40
0.33830353049655215
40
0.37862159683139707
40
0.37862159683139707
40
0.37862159683139707
40
0.37862159683139707
10
-1.3390017195985984
20
-156.90715462550858
30
0
10
-1.5207149417288961
20
-156.71877458031597
30
0
10
-1.6645640110230353
20
-156.4973010989149
30
0
10
-1.854014609164945
20
-156.01999059715772
30
0
10
-1.9011880196151429
20
-155.77013988290375
30
0
10
-1.8953993287234592
20
-155.27610385421215
30
0
10
-1.8461610144918641
20
-155.03666867654127
30
0
10
-1.6607723639269789
20
-154.599758128254
30
0
10
-1.5297946440236716
20
-154.40508757511316
30
0
10
-1.2668623137904356
20
-154.1450260678659
30
0
10
-1.1580470429254728
20
-154.06022545575115
30
0
10
-0.92543734519782928
20
-153.92048226180663
30
0
10
-0.80290394617812522
20
-153.86531587875282
30
0
10
-0.6750771856750033
20
-153.82550883466837
30
0
0
ARC
5
104
100
AcDbEntity
8
0
100
AcDbCircle
10
5.3151927303929369e-14
20
-155.3486065969216
30
0
40
1.665999999999914
210
0
220
-0
230
1
100
AcDbArc
50
14.667241685032279
51
113.90418688639897
0
SPLINE
5
105
100
AcDbEntity
8
0
100
AcDbSpline
70
0
71
3
72
18
73
14
74
0
42
0.000000001
43
0.0000000001
44
0.0000000001
40
0
40
0
40
0
40
0
40
0.066052187146213637
40
0.066052187146213637
40
0.13495748532925747
40
0.13495748532925747
40
0.20671473867193002
40
0.20671473867193002
40
0.28132272351971266
40
0.28132272351971266
40
0.32859596045917261
40
0.32859596045917261
40
0.37694081721170974
40
0.37694081721170974
40
0.37694081721170974
40
0.37694081721170974
10
-163.38829047785794
20
175.07323272822077
30
0
10
-163.30840472447036
20
174.86806246279576
30
0
10
-163.27020411863319
20
174.64902123565437
30
0
10
-163.27826417517758
20
174.1988117161228
30
0
10
-163.32811009021245
20
173.97206233648905
30
0
10
-163.5141156415456
20
173.54071875472232
30
0
10
-163.65184130535485
20
173.34175075532198
30
0
10
-164.00154094358095
20
172.99964933974582
30
0
10
-164.21269285408562
20
172.86245098376241
30
0
10
-164.59053639222432
20
172.70927606258999
30
0
10
-164.74376136581947
20
172.66787037534522
30
0
10
-165.06030229809403
20
172.62150845211261
30
0
10
-165.22260312680817
20
172.61756553822326
30
0
10
-165.38366799884659
20
172.63278090208667
30
0
0
ARC
5
106
100
AcDbEntity
8
0
100
AcDbCircle
10
-165.00000000000003
20
174.65139340307843
30
0
40
2.0547499999998133
210
0
220
0
230
1
100
AcDbArc
50
229.33300141937426
51
259.23842715205177
0
SPLINE
5
107
100
AcDbEntity
8
0
100
AcDbSpline
70
0
71
3
72
18
73
14
74
0
42
0.000000001
43
0.0000000001
44
0.0000000001
40
0
40
0
40
0
40
0
40
0.078521374715012401
40
0.078521374715012401
40
0.15418269973510501
40
0.15418269973510501
40
0.22698290664498183
40
0.22698290664498183
40
0.29692100396408355
40
0.29692100396408355
40
0.33830353049645312
40
0.33830353049645312
40
0.378621596831339
40
0.378621596831339
40
0.378621596831339
40
0.378621596831339
10
-166.33900171959857
20
173.09284537449176
30
0
10
-166.52071494172887
20
173.28122541968438
30
0
10
-166.664564011023
20
173.50269890108547
30
0
10
-166.85401460916492
20
173.98000940284263
30
0
10
-166.90118801961512
20
174.22986011709656
30
0
10
-166.89539932872344
20
174.72389614578813
30
0
10
-166.84616101449183
20
174.96333132345899
30
0
10
-166.66077236392698
20
175.40024187174623
30
0
10
-166.52979464402367
20
175.59491242488707
30
0
10
-166.26686231379037
20
175.85497393213441
30
0
10
-166.1580470429254
20
175.93977454424913
30
0
10
-165.92543734519774
20
176.07951773819366
30
0
10
-165.80290394617805
20
176.13468412124743
30
0
10
-165.67507718567495
20
176.17449116533186
30
0
0
ARC
5
108
100
AcDbEntity
8
0
100
AcDbCircle
10
-165.00000000000003
20
174.65139340307843
30
0
40
1.6660000000000188
210
0
220
-0
230
1
100
AcDbArc
50
14.66724168503846
51
113.9041868863912
0
SPLINE
5
109
100
AcDbEntity
8
0
100
AcDbSpline
70
0
71
3
72
18
73
14
74
0
42
0.000000001
43
0.0000000001
44
0.0000000001
40
0
40
0
40
0
40
0
40
0.066052187146213637
40
0.066052187146213637
40
0.13495748532925747
40
0.13495748532925747
40
0.20671473867193002
40
0.20671473867193002
40
0.28132272351971266
40
0.28132272351971266
40
0.32859596045917261
40
0.32859596045917261
40
0.37694081721170974
40
0.37694081721170974
40
0.37694081721170974
40
0.37694081721170974
10
166.61170952214206
20
175.07323272822023
30
0
10
166.69159527552964
20
174.86806246279525
30
0
10
166.72979588136681
20
174.64902123565383
30
0
10
166.72173582482242
20
174.19881171612229
30
0
10
166.67188990978755
20
173.97206233648853
30
0
10
166.4858843584544
20
173.54071875472181
30
0
10
166.34815869464515
20
173.34175075532144
30
0
10
165.99845905641905
20
172.9996493397453
30
0
10
165.78730714591438
20
172.86245098376187
30
0
10
165.40946360777568
20
172.70927606258948
30
0
10
165.25623863418053
20
172.66787037534468
30
0
10
164.93969770190597
20
172.62150845211207
30
0
10
164.77739687319183
20
172.61756553822272
30
0
10
164.61633200115341
20
172.63278090208613
30
0
0
ARC
5
110
100
AcDbEntity
8
0
100
AcDbCircle
10
165.00000000000011
20
174.65139340307832
30
0
40
2.0547500000002521
210
0
220
0
230
1
100
AcDbArc
50
229.33300141937795
51
259.23842715205006
0
SPLINE
5
111
100
AcDbEntity
8
0
100
AcDbSpline
70
0
71
3
72
18
73
14
74
0
42
0.000000001
43
0.0000000001
44
0.0000000001
40
0
40
0
40
0
40
0
40
0.07852137471499207
40
0.07852137471499207
40
0.1541826997350868
40
0.1541826997350868
40
0.22698290664499854
40
0.22698290664499854
40
0.29692100396410154
40
0.29692100396410154
40
0.33830353049651329
40
0.33830353049651329
40
0.37862159683141211
40
0.37862159683141211
40
0.37862159683141211
40
0.37862159683141211
10
163.66099828040137
20
173.09284537449128
30
0
10
163.47928505827116
20
173.28122541968381
30
0
10
163.33543598897694
20
173.50269890108493
30
0
10
163.14598539083502
20
173.98000940284223
30
0
10
163.09881198038488
20
174.22986011709614
30
0
10
163.10460067127656
20
174.72389614578765
30
0
10
163.1538389855082
20
174.96333132345853
30
0
10
163.33922763607302
20
175.40024187174566
30
0
10
163.47020535597633
20
175.59491242488659
30
0
10
163.73313768620983
20
175.85497393213404
30
0
10
163.84195295707468
20
175.93977454424868
30
0
10
164.07456265480209
20
176.07951773819303
30
0
10
164.19709605382189
20
176.13468412124692
30
0
10
164.32492281432508
20
176.17449116533137
30
0
0
ARC
5
112
100
AcDbEntity
8
0
100
AcDbCircle
10
165.00000000000011
20
174.65139340307832
30
0
40
1.6659999999997734
210
0
220
-0
230
1
100
AcDbArc
50
14.667241685025521
51
113.90418688640031
0
ENDSEC
0
SECTION
2
OBJECTS
0
DICTIONARY
5
C
100
AcDbDictionary
3
ACAD_GROUP
350
D
3
ACAD_MLINESTYLE
350
17
0
DICTIONARY
5
D
100
AcDbDictionary
0
DICTIONARY
5
1A
330
C
100
AcDbDictionary
0
DICTIONARY
5
17
100
AcDbDictionary
0
ENDSEC
0
EOF
