<?xml version="1.0" standalone="no"?>
<!DOCTYPE svg PUBLIC "-//W3C//DTD SVG 20010904//EN"
 "http://www.w3.org/TR/2001/REC-SVG-20010904/DTD/svg10.dtd">
<svg version="1.0" xmlns="http://www.w3.org/2000/svg"
 width="300.000000pt" height="123.000000pt" viewBox="0 0 300.000000 123.000000"
 preserveAspectRatio="xMidYMid meet">
<metadata>
Created by potrace 1.10, written by Peter Selinger 2001-2011
</metadata>
<g transform="translate(0.000000,123.000000) scale(0.050000,-0.050000)"
fill="#000000" stroke="none">
<path d="M992 2258 c12 -15 143 -176 291 -358 411 -503 627 -770 1010 -1246
193 -240 355 -432 361 -427 5 5 -26 58 -69 116 -124 167 -1086 1556 -1096
1583 -7 18 153 24 681 24 379 0 690 5 690 11 0 8 -1265 226 -1830 316 -49 7
-56 4 -38 -19z"/>
<path d="M4075 2124 c-492 -83 -895 -156 -895 -163 0 -6 310 -11 690 -11 379
0 690 -6 690 -12 0 -7 -16 -34 -37 -60 -20 -27 -116 -165 -214 -308 -98 -143
-347 -502 -554 -798 -207 -296 -372 -541 -368 -546 4 -4 115 125 246 288 130
163 318 395 417 517 99 122 209 257 243 300 175 217 373 462 517 637 88 107
181 221 208 253 l47 59 -47 -3 c-27 -1 -451 -70 -943 -153z"/>
<path d="M5840 2086 c0 -13 11 -31 25 -40 38 -24 30 -74 -15 -89 -27 -9 -15
-14 39 -15 67 -2 74 2 45 23 -34 26 -36 64 -5 115 16 26 14 26 -17 1 -30 -25
-37 -25 -53 0 -12 19 -18 20 -19 5z"/>
<path d="M1995 1745 c-96 -4 -175 -10 -175 -15 0 -5 79 -121 175 -258 96 -138
364 -525 595 -860 231 -336 425 -610 430 -610 6 0 127 171 270 380 143 209
315 458 382 554 420 601 548 790 542 797 -13 13 -1034 34 -1034 22 0 -6 101
-68 225 -136 124 -69 228 -128 232 -131 13 -11 -12 -52 -178 -288 -90 -126
-222 -318 -294 -425 -155 -230 -140 -225 -235 -80 -42 63 -178 261 -303 439
-125 178 -227 331 -227 340 0 9 104 73 230 142 127 70 230 131 230 135 0 10
-570 5 -865 -6z"/>
</g>
</svg>
