<?xml version="1.0" encoding="UTF-8" standalone="no"?>
<svg
   xmlns:dc="http://purl.org/dc/elements/1.1/"
   xmlns:cc="http://creativecommons.org/ns#"
   xmlns:rdf="http://www.w3.org/1999/02/22-rdf-syntax-ns#"
   xmlns:svg="http://www.w3.org/2000/svg"
   xmlns="http://www.w3.org/2000/svg"
   xmlns:sodipodi="http://sodipodi.sourceforge.net/DTD/sodipodi-0.dtd"
   xmlns:inkscape="http://www.inkscape.org/namespaces/inkscape"
   width="2117.5354"
   height="2393.4409"
   version="1.1"
   id="svg5245"
   sodipodi:docname="Rear Panel Cut Pattern.svg"
   inkscape:version="0.92.3 (2405546, 2018-03-11)">
  <metadata
     id="metadata5249">
    <rdf:RDF>
      <cc:Work
         rdf:about="">
        <dc:format>image/svg+xml</dc:format>
        <dc:type
           rdf:resource="http://purl.org/dc/dcmitype/StillImage" />
        <dc:title></dc:title>
      </cc:Work>
    </rdf:RDF>
  </metadata>
  <sodipodi:namedview
     pagecolor="#ffffff"
     bordercolor="#666666"
     borderopacity="1"
     objecttolerance="10"
     gridtolerance="10"
     guidetolerance="10"
     inkscape:pageopacity="0"
     inkscape:pageshadow="2"
     inkscape:window-width="1920"
     inkscape:window-height="1057"
     id="namedview5247"
     showgrid="false"
     fit-margin-top="0"
     fit-margin-left="0"
     fit-margin-right="0"
     fit-margin-bottom="0"
     inkscape:zoom="0.29732611"
     inkscape:cx="934.96097"
     inkscape:cy="1137.4423"
     inkscape:window-x="1912"
     inkscape:window-y="-8"
     inkscape:window-maximized="1"
     inkscape:current-layer="g5243" />
  <desc
     id="desc5207">D:\OneDrive\Document Library\GitHub\Project-Valkyrie\Part File Library\Cut Files\Enclosure\Rear Panel Cut Pattern.dxf - scale = 1.000000, origin = (0.000000, 0.000000), method = manual</desc>
  <defs
     id="defs5221">
    <marker
       id="DistanceX"
       orient="auto"
       refX="0"
       refY="0"
       style="overflow:visible">
      <path
         d="M 3,-3 -3,3 M 0,-5 V 5"
         style="stroke:#000000;stroke-width:0.5"
         id="path5209"
         inkscape:connector-curvature="0" />
    </marker>
    <pattern
       height="8"
       id="Hatch"
       patternUnits="userSpaceOnUse"
       width="8"
       x="0"
       y="0">
      <path
         d="M8 4 l-4,4"
         linecap="square"
         stroke="#000000"
         stroke-width="0.25"
         id="path5212" />
      <path
         d="M6 2 l-4,4"
         linecap="square"
         stroke="#000000"
         stroke-width="0.25"
         id="path5214" />
      <path
         d="M4 0 l-4,4"
         linecap="square"
         stroke="#000000"
         stroke-width="0.25"
         id="path5216" />
    </pattern>
    <symbol
       id="*MODEL_SPACE" />
    <symbol
       id="*PAPER_SPACE" />
  </defs>
  <g
     inkscape:groupmode="layer"
     inkscape:label="0"
     id="g5243"
     transform="translate(1058.7677,1837.3504)">
    <path
       d="M 566.92913,-1196.2205 H -566.92913 v 260.78743 h 226.77165 v 177.63779 h 680.31496 v -177.63779 h 226.77165 z"
       style="fill:none;stroke:#000000"
       id="path5223"
       inkscape:connector-curvature="0" />
    <path
       d="m 917.48032,517.79528 a 10.393705,10.393705 0 1 0 -20.78741,0 10.393705,10.393705 0 1 0 20.78741,0 z"
       style="fill:none;stroke:#000000"
       id="path5225"
       inkscape:connector-curvature="0" />
    <path
       d="m -896.69291,-209.76378 a 10.393705,10.393705 0 1 0 -20.78741,0 10.393705,10.393705 0 1 0 20.78741,0 z"
       style="fill:none;stroke:#000000"
       id="path5227"
       inkscape:connector-curvature="0" />
    <path
       d="m 917.48032,-946.77165 a 10.393705,10.393705 0 1 0 -20.78741,0 10.393705,10.393705 0 1 0 20.78741,0 z"
       style="fill:none;stroke:#000000"
       id="path5229"
       inkscape:connector-curvature="0" />
    <path
       d="m 917.48032,-1674.3307 a 10.393705,10.393705 0 1 0 -20.78741,0 10.393705,10.393705 0 1 0 20.78741,0 z"
       style="fill:none;stroke:#000000"
       id="path5231"
       inkscape:connector-curvature="0" />
    <path
       d="m -896.69291,-1674.3307 a 10.393705,10.393705 0 1 0 -20.78741,0 10.393705,10.393705 0 1 0 20.78741,0 z"
       style="fill:none;stroke:#000000"
       id="path5233"
       inkscape:connector-curvature="0" />
    <path
       d="m -896.69291,-946.77165 a 10.393705,10.393705 0 1 0 -20.78741,0 10.393705,10.393705 0 1 0 20.78741,0 z"
       style="fill:none;stroke:#000000"
       id="path5235"
       inkscape:connector-curvature="0" />
    <path
       d="m 917.48032,-209.76378 a 10.393705,10.393705 0 1 0 -20.78741,0 10.393705,10.393705 0 1 0 20.78741,0 z"
       style="fill:none;stroke:#000000"
       id="path5237"
       inkscape:connector-curvature="0" />
    <path
       d="m -896.69291,517.79528 a 10.393705,10.393705 0 1 0 -20.78741,0 10.393705,10.393705 0 1 0 20.78741,0 z"
       style="fill:none;stroke:#000000"
       id="path5239"
       inkscape:connector-curvature="0" />
    <path
       d="M 1058.2677,555.59055 H -1058.2677 V -1836.8504 h 2116.5354 z"
       style="fill:none;stroke:#000000"
       id="path5241"
       inkscape:connector-curvature="0" />
  </g>
</svg>
